<svg xmlns="http://www.w3.org/2000/svg" width="38" height="30" viewBox="0 0 38 30"><g><g><path fill="#00d1b6" d="M9.833 25a3.333 3.333 0 1 1 2.084-5.936 3.333 3.333 0 1 1 0 5.204A3.32 3.32 0 0 1 9.833 25zm20.834 3.333c0 .92-.747 1.667-1.667 1.667H2.333c-.92 0-1.666-.746-1.666-1.667V10c0-.92.746-1.667 1.666-1.667h5V1.667c0-.855.644-1.56 1.473-1.656L9 0h26.667c.854 0 1.559.643 1.655 1.472l.011.195v16.666c0 .855-.643 1.56-1.472 1.656l-.194.011h-5zm0-18.333v6.667H34V3.333H10.667v5H29c.92 0 1.667.747 1.667 1.667zM4 11.667v15h23.333v-15z"/></g></g></svg>