<svg xmlns="http://www.w3.org/2000/svg" width="29.166" height="29.166" viewBox="0 0 29.166 29.166">
  <path id="Colour" d="M16.041,22.6a6.524,6.524,0,0,1,1.008-3.491l-2.466-2.466-2.466,2.466a6.567,6.567,0,1,1-2.062-2.063l2.466-2.466-2.466-2.467a6.567,6.567,0,1,1,2.062-2.062l2.467,2.466,2.466-2.466a6.567,6.567,0,1,1,2.063,2.062l-2.466,2.466,2.466,2.466A6.561,6.561,0,1,1,16.041,22.6Zm2.916,0A3.646,3.646,0,1,0,22.6,18.958,3.65,3.65,0,0,0,18.958,22.6Zm-16.041,0a3.646,3.646,0,1,0,3.646-3.646A3.65,3.65,0,0,0,2.916,22.6ZM18.958,6.563A3.646,3.646,0,1,0,22.6,2.916,3.65,3.65,0,0,0,18.958,6.563Zm-16.041,0A3.646,3.646,0,1,0,6.563,2.916,3.65,3.65,0,0,0,2.916,6.563Z" fill="#00d1b6"/>
</svg>
