<svg id="Group_9" data-name="Group 9" xmlns="http://www.w3.org/2000/svg" xmlns:xlink="http://www.w3.org/1999/xlink" width="59" height="53" viewBox="0 0 59 53">
  <defs>
    <clipPath id="clip-path">
      <path id="Clip_2" data-name="Clip 2" d="M0,0H49.494V47.364H0Z" fill="none"/>
    </clipPath>
    <clipPath id="clip-path-2">
      <path id="Clip_5" data-name="Clip 5" d="M0,0H5.176V4.278H0Z" transform="translate(0 0)" fill="none"/>
    </clipPath>
  </defs>
  <g id="Group_3" data-name="Group 3" transform="translate(0 5.636)">
    <path id="Clip_2-2" data-name="Clip 2" d="M0,0H49.494V47.364H0Z" fill="none"/>
    <g id="Group_3-2" data-name="Group 3" clip-path="url(#clip-path)">
      <path id="Fill_1" data-name="Fill 1" d="M25.258,47.363c-1.188,0-2.908-.041-5.256-.125a.979.979,0,0,1-.812-.483l-8.05-13.594C5.912,37.123,5.866,37.138,5.672,37.2a.992.992,0,0,1-.76-.058c-.437-.225-.437-.225-2.722-7.4-1.02-3.2-2.032-6.417-2.144-6.772a1,1,0,0,1,.131-.87.975.975,0,0,1,.761-.424l7.2-.349C36.775.2,37,.122,37.208.057A1.1,1.1,0,0,1,37.545,0c.641,0,.914.674,1.03.962.09.222.214.545.381.989.279.74.672,1.812,1.276,3.474.464,1.282,1.007,2.791,1.614,4.486a6.5,6.5,0,0,1,.769-.047c2.528,0,4.5,1.577,5.4,4.325a5.81,5.81,0,0,1-.161,4.662,5.413,5.413,0,0,1-2.08,2.107c1.907,5.382,3.485,9.862,3.658,10.355l0,.006a.991.991,0,0,1-.93,1.321H20.743c7.625,13.086,7.625,13.26,7.625,13.607a1.034,1.034,0,0,1-.308.727C27.828,47.2,27.661,47.363,25.258,47.363ZM13.127,32.64l7.482,12.635c1.909.064,3.6.1,4.757.1l.434,0c-1.366-2.435-4.673-8.15-7.344-12.732H13.127ZM37.066,2.523h0C32.706,5.674,14.948,18.769,9.071,23.107a.981.981,0,0,1-.536.191l-6.223.3c1.153,3.656,2.771,8.752,3.537,11.075,1.141-.855,2.966-2.234,4.294-3.24l-1.779-5.4a.992.992,0,0,1,.626-1.253.981.981,0,0,1,1.247.629l1.729,5.249,35.149,0C43.13,19.355,38.479,6.27,37.066,2.523Zm5.564,9.317h-.094l.084.232c.488,1.369.943,2.645,1.387,3.9.369,1.038.737,2.075,1.1,3.094a3.552,3.552,0,0,0,1.04-4.25,4.59,4.59,0,0,0-1.569-2.376A3.258,3.258,0,0,0,42.63,11.839Z" transform="translate(0 0)" fill="#fff"/>
    </g>
  </g>
  <g id="Group_6" data-name="Group 6" transform="translate(41.922 0)">
    <path id="Clip_5-2" data-name="Clip 5" d="M0,0H5.176V4.278H0Z" transform="translate(0 0)" fill="none"/>
    <g id="Group_6-2" data-name="Group 6" clip-path="url(#clip-path-2)">
      <path id="Fill_4" data-name="Fill 4" d="M.987,4.278a.973.973,0,0,0,.571-.184L4.763,1.8A.994.994,0,0,0,4.993.416.982.982,0,0,0,3.619.184L.414,2.479A.994.994,0,0,0,.183,3.861a.981.981,0,0,0,.8.417" transform="translate(0 0)" fill="#fff"/>
    </g>
  </g>
  <path id="Fill_7" data-name="Fill 7" d="M5.4.069,1,0H.986A.993.993,0,0,0,.971,1.985l4.4.066h.016A.991.991,0,0,0,5.4.069" transform="translate(52.632 36.226)" fill="#fff"/>
</svg>
