<svg xmlns="http://www.w3.org/2000/svg" width="62" height="62" viewBox="0 0 62 62"><g><g><g><path fill="#00d1b6" d="M18.56 0H1.18C.528 0 0 .53 0 1.182v16.073C3.918 7.446 11.745 2.492 18.56 0"/></g><g><path fill="#00d1b6" d="M43.25 0h17.38c.652 0 1.181.53 1.181 1.182v16.073C57.893 7.446 50.066 2.492 43.25 0"/></g><g><path fill="#00d1b6" d="M43.25 61.255h17.38c.652 0 1.181-.53 1.181-1.182V44c-3.918 9.809-11.745 14.763-18.561 17.255"/></g><g><path fill="#00d1b6" d="M18.56 61.255H1.18A1.18 1.18 0 0 1 0 60.073V44c3.918 9.809 11.745 14.763 18.56 17.255"/></g><g><path fill="#fff" d="M45.52 30.631c0 8.074-6.546 14.62-14.62 14.62-8.074 0-14.62-6.546-14.62-14.62 0-8.074 6.545-14.621 14.62-14.621 8.074 0 14.62 6.547 14.62 14.621"/></g></g></g></svg>