<svg id="_3._Icons_Normal_Finantial_ATM" data-name="3. Icons / Normal / Finantial / ATM" xmlns="http://www.w3.org/2000/svg" width="40" height="40" viewBox="0 0 40 40">
  <path id="Colour" d="M8.334,28.334a1.4,1.4,0,0,1-1.389-1.418V15H4.167A4.214,4.214,0,0,1,0,10.75v-6.5A4.214,4.214,0,0,1,4.167,0h25a4.214,4.214,0,0,1,4.167,4.249v6.5A4.214,4.214,0,0,1,29.166,15H26.389V26.916A1.4,1.4,0,0,1,25,28.334ZM10,25H23.334V9.24H10ZM26.667,11.667h1.944A1.39,1.39,0,0,0,30,10.278V4.722a1.39,1.39,0,0,0-1.389-1.389H4.7A1.39,1.39,0,0,0,3.313,4.722v5.556A1.39,1.39,0,0,0,4.7,11.667H6.666V9.095H5.556V5.778H27.779c0,.009,0,.282,0,3.317h-1.11Zm-13,10.5a.725.725,0,0,1-.754-.736.778.778,0,0,1,.512-.75l.486-.17V18.657h-.219a.806.806,0,0,1-.779-.828.817.817,0,0,1,.779-.842h.219V15.922a3.267,3.267,0,0,1,.731-2.248,2.805,2.805,0,0,1,2.152-.84,2.956,2.956,0,0,1,2.336,1,.987.987,0,0,1,.292.723.952.952,0,0,1-.924.986.9.9,0,0,1-.671-.3,1.281,1.281,0,0,0-1.009-.525.88.88,0,0,0-.693.29,1.424,1.424,0,0,0-.317.972v1.012h2.068a.817.817,0,0,1,.779.842.806.806,0,0,1-.779.828H15.808v1.761h2.957a.85.85,0,0,1,.815.881.838.838,0,0,1-.815.868Z" transform="translate(3.333 6.667)" fill="#00d1b6"/>
</svg>
