<svg xmlns="http://www.w3.org/2000/svg" width="30" height="36" viewBox="0 0 30 36"><g><g><path fill="#00d1b6" d="M16.667 22.334a1.667 1.667 0 1 0 3.333 0 1.667 1.667 0 0 0-3.333 0zm-6.667 0a1.667 1.667 0 1 0 3.333 0 1.667 1.667 0 0 0-3.333 0zm6.667-5a1.667 1.667 0 1 0 3.333 0 1.667 1.667 0 0 0-3.333 0zm0-5a1.667 1.667 0 1 0 3.333 0 1.667 1.667 0 0 0-3.333 0zm-6.667 5a1.667 1.667 0 1 0 3.333 0 1.667 1.667 0 0 0-3.333 0zm0-5a1.667 1.667 0 1 0 3.333 0 1.667 1.667 0 0 0-3.333 0zm6.667 16.667v3.333h-3.334v-3.333zm6.666-24.478v27.811H20v-5c0-.92-.746-1.666-1.667-1.666h-6.666c-.92 0-1.667.746-1.667 1.666v5H6.667V9.124zm3.334 27.811v-30c0-1.1-1.05-1.9-2.11-1.606l-20 5.522c-.723.2-1.224.857-1.224 1.606v24.478H1.667l-.195.012a1.667 1.667 0 0 0 .195 3.322h26.666l.195-.012a1.667 1.667 0 0 0-.195-3.322z"/></g></g></svg>