<svg id="_3._Icons_Normal_Nav_Accounts" data-name="3. Icons / Normal / Nav / Accounts" xmlns="http://www.w3.org/2000/svg" width="40" height="40" viewBox="0 0 40 40">
  <path id="Colour" d="M1.667,30A1.669,1.669,0,0,1,0,28.334V10A1.668,1.668,0,0,1,1.667,8.334h5V1.667A1.668,1.668,0,0,1,8.139.01L8.334,0H35a1.667,1.667,0,0,1,1.656,1.473l.01.194V18.333a1.666,1.666,0,0,1-1.472,1.656L35,20H30v8.334A1.669,1.669,0,0,1,28.334,30Zm1.667-3.333H26.667v-15H3.333Zm30-10V3.333H10v5H28.334A1.668,1.668,0,0,1,30,10v6.666Zm-22.083,7.6a3.334,3.334,0,1,1,0-5.2,3.334,3.334,0,1,1,0,5.2Z" transform="translate(1.667 5)" fill="#00d1b6"/>
</svg>
