<?xml version="1.0" encoding="UTF-8"?>
<svg width="34px" height="24px" viewBox="0 0 34 24" version="1.1" xmlns="http://www.w3.org/2000/svg" xmlns:xlink="http://www.w3.org/1999/xlink">
    <title>Icons/Info/phone</title>
    <defs>
        <filter color-interpolation-filters="auto" id="filter-1">
            <feColorMatrix in="SourceGraphic" type="matrix" values="0 0 0 0 0.000000 0 0 0 0 0.819608 0 0 0 0 0.713725 0 0 0 1.000000 0"></feColorMatrix>
        </filter>
    </defs>
    <g id="Page-1" stroke="none" stroke-width="1" fill="none" fill-rule="evenodd">
        <g id="1.4.1b-—-Business-Premium-Current-Account-" transform="translate(-185.000000, -1771.000000)">
            <g id="Icons/Info/phone" transform="translate(0.000000, 728.000000)" filter="url(#filter-1)">
                <g transform="translate(185.333333, 1043.333333)" id="Cheque-Book" fill="#003D4C">
                    <g id="checkbook" fill-rule="nonzero">
                        <path d="M31.372549,2.28222109 L10.6883007,2.28222109 C10.2781046,0.95710647 9.12882353,0 7.77777778,0 L1.96078431,0 C0.879607843,0 0,0.959816607 0,2.13958227 L0,15.8091357 C0,16.9889013 0.879607843,17.9487179 1.96078431,17.9487179 L3.33333333,17.9487179 C3.33333333,18.276594 3.33333333,18.8337872 3.33333333,19.6202976 C3.33333333,20.8000633 4.06143895,23.3333333 6.66666667,23.3333333 L31.372549,23.3333333 C32.4537255,23.3333333 33.3333333,22.3735167 33.3333333,21.1937511 L33.3333333,4.42180336 C33.3333333,3.2420377 32.4537255,2.28222109 31.372549,2.28222109 Z M8.00004249,19.3900914 C7.59089217,19.6953103 7.16373913,19.755014 6.02922932,19.755014 L6.02922932,17.9557244 L7.21783309,17.9764376 C8.2313625,17.9764376 8.70788563,18.8621371 8.00004249,19.3900914 Z M8.33333333,14.7873959 C8.33333333,14.3589744 8.33333333,14.3589744 3.33333333,14.3589744 C3.33333333,12.7127084 3.33333333,5.03553065 3.33333333,3.58974359 C4.88972516,3.58974359 6.00083627,3.58974359 6.66666667,3.58974359 C7.66541226,3.58974359 8.33333333,3.978425 8.33333333,5.38461538 L8.33333333,14.7873959 Z M30,19.7435897 L11.6666667,19.7435897 C11.6666667,18.7188474 11.6666667,20.1991544 11.6666667,5.38461538 L30,5.38461538 L30,19.7435897 Z" id="Shape"></path>
                    </g>
                    <rect id="Rectangle" x="13.3333333" y="8.33333333" width="15" height="3.33333333" rx="1.66666667"></rect>
                    <rect id="Rectangle-Copy" x="13.3333333" y="13.3333333" width="15" height="3.33333333" rx="1.66666667"></rect>
                </g>
            </g>
        </g>
    </g>
</svg>