<svg xmlns="http://www.w3.org/2000/svg" width="32" height="27" viewBox="0 0 32 27"><g><g><path fill="#003d4c" d="M28.393 6.701c.019.281.019.563.019.846 0 8.647-6.433 18.619-18.194 18.619v-.005a17.803 17.803 0 0 1-9.801-2.935 12.69 12.69 0 0 0 1.522.095c2.88.003 5.677-.986 7.941-2.807-2.736-.052-5.136-1.878-5.974-4.544.958.189 1.946.15 2.887-.112-2.983-.617-5.129-3.3-5.13-6.415V9.36c.89.507 1.885.788 2.902.82C1.755 8.258.89 4.433 2.585 1.443c3.248 4.088 8.038 6.573 13.18 6.837-.516-2.273.189-4.654 1.85-6.252a6.298 6.298 0 0 1 9.047.284 12.64 12.64 0 0 0 4.06-1.589 6.541 6.541 0 0 1-2.811 3.62c1.267-.154 2.505-.5 3.672-1.03a13.184 13.184 0 0 1-3.19 3.387"/></g></g></svg>