<svg xmlns="http://www.w3.org/2000/svg" width="32" height="32" viewBox="0 0 32 32"><g><g><path fill="#003d4c" d="M25.917 24.5h-3.902v-7.036c0-4.23-5.202-3.909-5.202 0V24.5H12.91V10.688h3.902v2.217c1.815-3.247 9.104-3.487 9.104 3.108zM8.359 9.096c-1.256 0-2.276-.992-2.276-2.214 0-1.223 1.02-2.215 2.276-2.215 1.257 0 2.276.992 2.276 2.215 0 1.222-1.018 2.214-2.276 2.214zM10.31 24.5H6.408V10.688h3.902zM25.09.417H6.91A6.494 6.494 0 0 0 .417 6.91v18.18a6.494 6.494 0 0 0 6.493 6.493h18.18a6.493 6.493 0 0 0 6.493-6.493V6.91A6.493 6.493 0 0 0 25.09.417z"/></g></g></svg>