<svg xmlns="http://www.w3.org/2000/svg" width="32" height="35" viewBox="0 0 32 35"><g><g><path fill="#003d4c" d="M26.187 8.536c0 1.137-.838 2.058-1.87 2.058-1.033 0-1.87-.921-1.87-2.058 0-1.137.837-2.058 1.87-2.058zm-4.994 9.156c0-3.158-2.326-5.717-5.195-5.717s-5.194 2.56-5.194 5.717c0 3.158 2.325 5.717 5.194 5.717 2.869 0 5.195-2.56 5.195-5.717zm-5.195-8.808c4.42 0 8.002 3.943 8.002 8.808 0 4.864-3.582 8.808-8.002 8.808-4.42 0-8.002-3.944-8.002-8.808 0-4.865 3.583-8.808 8.002-8.808zM22.423.643c1.659.083 2.792.373 3.783.797 1.025.438 1.894 1.025 2.76 1.978.866.954 1.4 1.91 1.797 3.039.386 1.09.65 2.337.725 4.163.076 1.83.094 2.414.094 7.072 0 4.658-.018 5.242-.094 7.072-.076 1.826-.34 3.072-.725 4.163-.398 1.128-.93 2.085-1.797 3.038-.866.954-1.735 1.54-2.76 1.979-.991.424-2.124.714-3.783.797-1.662.084-2.193.103-6.425.103-4.232 0-4.763-.02-6.425-.103-1.658-.083-2.791-.373-3.782-.797-1.025-.438-1.894-1.025-2.76-1.979-.867-.953-1.4-1.91-1.798-3.038-.385-1.09-.649-2.337-.724-4.163-.076-1.83-.094-2.414-.094-7.072 0-4.658.018-5.242.094-7.072.075-1.826.339-3.072.724-4.163.398-1.128.931-2.085 1.797-3.039.867-.953 1.736-1.54 2.76-1.978.992-.424 2.125-.714 3.783-.797C11.235.559 11.766.54 15.998.54c4.232 0 4.763.02 6.425.103zM15.998 3.63c-4.16 0-4.654.018-6.297.1-1.52.076-2.344.356-2.893.59a4.81 4.81 0 0 0-1.792 1.284c-.546.6-.883 1.171-1.166 1.972-.213.604-.467 1.513-.536 3.185-.075 1.809-.091 2.351-.091 6.931s.016 5.122.09 6.931c.07 1.672.324 2.58.537 3.185.283.8.62 1.372 1.166 1.972a4.81 4.81 0 0 0 1.792 1.283c.549.235 1.374.515 2.893.59 1.643.083 2.136.1 6.297.1s4.654-.017 6.297-.1c1.52-.075 2.345-.355 2.894-.59a4.81 4.81 0 0 0 1.792-1.283c.545-.6.883-1.171 1.165-1.972.214-.604.468-1.513.537-3.185.075-1.809.09-2.351.09-6.931s-.015-5.122-.09-6.931c-.07-1.672-.323-2.58-.537-3.185-.282-.8-.62-1.372-1.165-1.972a4.81 4.81 0 0 0-1.792-1.283c-.55-.235-1.374-.515-2.894-.59-1.643-.083-2.136-.1-6.297-.1z"/></g></g></svg>