<svg xmlns="http://www.w3.org/2000/svg" width="30" height="27" viewBox="0 0 30 27">
  <path id="List" d="M15,27a1.5,1.5,0,0,1-.174-2.99L15,24H28.5a1.5,1.5,0,0,1,.176,2.99L28.5,27ZM1.5,27A1.5,1.5,0,0,1,0,25.5V18a1.5,1.5,0,0,1,1.5-1.5H9A1.5,1.5,0,0,1,10.5,18v7.5A1.5,1.5,0,0,1,9,27ZM3,24H7.5V19.5H3Zm12-4.5a1.5,1.5,0,0,1-.174-2.989L15,16.5H28.5a1.5,1.5,0,0,1,.176,2.99L28.5,19.5Zm0-9a1.5,1.5,0,0,1-.174-2.99L15,7.5H28.5a1.5,1.5,0,0,1,.176,2.989L28.5,10.5Zm-13.5,0A1.5,1.5,0,0,1,0,9V1.5A1.5,1.5,0,0,1,1.5,0H9a1.5,1.5,0,0,1,1.5,1.5V9A1.5,1.5,0,0,1,9,10.5ZM3,7.5H7.5V3H3ZM15,3a1.5,1.5,0,0,1-.174-2.99L15,0H28.5a1.5,1.5,0,0,1,.176,2.99L28.5,3Z" fill="#00d1b6"/>
</svg>
