<?xml version="1.0" encoding="UTF-8"?>
<svg width="34px" height="34px" viewBox="0 0 34 34" version="1.1" xmlns="http://www.w3.org/2000/svg" xmlns:xlink="http://www.w3.org/1999/xlink">
    <title>Icons/Info/phone</title>
    <defs>
        <filter color-interpolation-filters="auto" id="filter-1">
            <feColorMatrix in="SourceGraphic" type="matrix" values="0 0 0 0 0.000000 0 0 0 0 0.819608 0 0 0 0 0.713725 0 0 0 1.000000 0"></feColorMatrix>
        </filter>
    </defs>
    <g id="Page-1" stroke="none" stroke-width="1" fill="none" fill-rule="evenodd">
        <g id="3.1.1-—-Personal-Premium-Current-Account" transform="translate(-328.000000, -1778.000000)">
            <g id="Icons/Info/phone" transform="translate(0.000000, 728.000000)" filter="url(#filter-1)">
                <g transform="translate(328.333333, 1050.333333)">
                    <g id="paper-plane" transform="translate(16.666667, 16.666667) rotate(-360.000000) translate(-16.666667, -16.666667) " fill="#003D4C" fill-rule="nonzero">
                        <path d="M33.1595961,0.420421532 C32.8905843,0.0323361125 32.3826391,-0.107767867 31.9528192,0.0876745803 L0.572452276,14.3513925 C0.206890533,14.5175381 -0.0197382161,14.8905845 0.00135564053,15.2915605 C0.0223843926,15.6926017 0.28677375,16.0398017 0.667765258,16.1668198 L7.60484458,18.4791865 L8.57314375,23.9682417 C8.64443317,24.372538 8.96097123,24.6890089 9.36520504,24.7602979 L14.8542953,25.7285909 L17.1666768,32.6656259 C17.2936956,33.046615 17.6408979,33.3110026 18.0419416,33.3320313 C18.0591943,33.3329427 18.0762517,33.3333333 18.0933741,33.3333333 C18.474561,33.3333333 18.8231304,33.1107425 18.9821156,32.7608732 L33.2426043,1.38812857 C33.3845973,1.07517326 33.360118,0.709809167 33.1595961,0.420421532 Z M24.9162458,6.06006495 L13.4900983,17.4862124 L5.48410392,15 L24.9162458,6.06006495 Z M10.7741102,22.5592232 L10.3570241,19.1409891 L13.345705,19.9072788 L14.2378867,23.0218517 L10.7741102,22.5592232 Z M18.3965024,27.8245928 L16.0469874,19.6433685 L27.2732684,8.41708755 L18.3965024,27.8245928 Z" id="Shape"></path>
                    </g>
                </g>
            </g>
        </g>
    </g>
</svg>