<svg id="Group_3" data-name="Group 3" xmlns="http://www.w3.org/2000/svg" xmlns:xlink="http://www.w3.org/1999/xlink" width="77" height="54" viewBox="0 0 77 54">
  <defs>
    <clipPath id="clip-path">
      <path id="Clip_2" data-name="Clip 2" d="M0,0H77V54H0Z" fill="none"/>
    </clipPath>
  </defs>
  <path id="Clip_2-2" data-name="Clip 2" d="M0,0H77V54H0Z" fill="none"/>
  <g id="Group_3-2" data-name="Group 3" clip-path="url(#clip-path)">
    <path id="Fill_1" data-name="Fill 1" d="M42.967,54a3.685,3.685,0,0,1-2.872-1.417l-.917-1.128-.823,1.1a3.647,3.647,0,0,1-2.879,1.435,4.611,4.611,0,0,1-4.3-3.669.155.155,0,0,1,0-.021s0-.009,0-.014a3.446,3.446,0,0,1-.507.039,4.61,4.61,0,0,1-4.3-3.668s0-.009,0-.013a.124.124,0,0,0,0-.021,3.527,3.527,0,0,1-.5.038,4.615,4.615,0,0,1-4.306-3.669v-.008a.151.151,0,0,0,0-.026,3.448,3.448,0,0,1-.507.039A4.345,4.345,0,0,1,18.4,42.02a4.3,4.3,0,0,1-1.669-2.691A4.032,4.032,0,0,1,17.077,37c-1.688-1.1-5.3-3.181-8.121-4.748a.607.607,0,0,1-.06-.041l-.034-.025-.975,2.153a1.182,1.182,0,0,1-1.074.7,1.167,1.167,0,0,1-.491-.109L.689,32.316a1.2,1.2,0,0,1-.582-1.582,1.186,1.186,0,0,1,1.074-.7,1.163,1.163,0,0,1,.491.109l4.561,2.111L18.409,5.37l-4.75-2.2a1.2,1.2,0,0,1-.581-1.582,1.184,1.184,0,0,1,1.074-.7A1.166,1.166,0,0,1,14.641,1l5.822,2.7a1.194,1.194,0,0,1,.614.669,1.219,1.219,0,0,1-.032.913L19.9,7.806l11.513,2.631a1.153,1.153,0,0,1,.2.067l.9-.908a1.165,1.165,0,0,1,.834-.35h20.6l3.578-1.391-1.57-3.469a1.216,1.216,0,0,1-.032-.913,1.177,1.177,0,0,1,.615-.669l5.821-2.7A1.167,1.167,0,0,1,62.85,0a1.185,1.185,0,0,1,1.074.7,1.2,1.2,0,0,1-.582,1.582l-4.75,2.2L70.767,31.364l4.562-2.111a1.165,1.165,0,0,1,.491-.109,1.183,1.183,0,0,1,1.073.7,1.2,1.2,0,0,1-.582,1.58l-5.633,2.61a1.173,1.173,0,0,1-.9.033,1.194,1.194,0,0,1-.661-.622l-1.177-2.6c-3.408,1.773-6.533,3.461-7.6,4.107l.785,1.292a4.117,4.117,0,0,1-.751,6.053,4.268,4.268,0,0,1-2.6.967,3.434,3.434,0,0,1-.693-.076,4.608,4.608,0,0,1-4.3,3.644,3.526,3.526,0,0,1-.643-.065.083.083,0,0,0,0,.015,4.632,4.632,0,0,1-4.292,3.676,3.42,3.42,0,0,1-.6-.057,4.4,4.4,0,0,1-1.675,2.632A4.277,4.277,0,0,1,42.967,54Zm-4.25-13.274a3.987,3.987,0,0,1,2.441.885,4.292,4.292,0,0,1,1.971,3.222,3.981,3.981,0,0,1-.912,2.537l-1.58,2.124,1.294,1.588a.358.358,0,0,1,.025.032l.007.01a1.247,1.247,0,0,0,.976.484,2.122,2.122,0,0,0,1.248-.51,1.983,1.983,0,0,0,.747-1.172,2.155,2.155,0,0,0-.535-1.559,1.2,1.2,0,0,1,.234-1.671,1.169,1.169,0,0,1,1.651.237c.08.106.161.224.256.372a1.173,1.173,0,0,1,.289.264,1.271,1.271,0,0,0,.989.5,2.114,2.114,0,0,0,1.245-.509l.016-.012.022-.015a2.009,2.009,0,0,0,.708-1.143,2.158,2.158,0,0,0-.535-1.561l-1.778-2.491a1.205,1.205,0,0,1,.266-1.667,1.163,1.163,0,0,1,.689-.226,1.179,1.179,0,0,1,.959.5l1.763,2.471c.025.034.047.067.07.1l.048.071a1.168,1.168,0,0,1,.488.369,1.268,1.268,0,0,0,.988.5,2.115,2.115,0,0,0,1.245-.509l.022-.015.018-.013a1.99,1.99,0,0,0,.707-1.143,2.149,2.149,0,0,0-.535-1.558l-2.2-2.84a1.2,1.2,0,0,1,.2-1.674,1.17,1.17,0,0,1,1.657.2l2.209,2.855c.042.056.08.113.116.168l.055.081a1.154,1.154,0,0,1,.494.373,1.274,1.274,0,0,0,.989.5,2.116,2.116,0,0,0,1.244-.509,2.014,2.014,0,0,0,.749-1.171,2.159,2.159,0,0,0-.537-1.56c-.024-.032-.047-.068-.062-.092l-4.323-7.1L53.684,28.53l-.008,0a.028.028,0,0,1-.01,0L38.314,18.358c-1.152.841-2.805,2.094-4.914,3.724a8.373,8.373,0,0,1-5.09,1.982,6.425,6.425,0,0,1-1.031-.084,7.63,7.63,0,0,1-4.663-3.012,1.206,1.206,0,0,1,.142-1.513l6.9-6.974L18.976,10.04a.3.3,0,0,1-.042-.013l-.035-.011L9.827,30.052a1.2,1.2,0,0,1,.263.1c.974.541,5.951,3.318,8.3,4.862l2.819-3.785.021-.029.011-.015a3.849,3.849,0,0,1,5.473-.571,4.539,4.539,0,0,1,1.928,2.808,3.629,3.629,0,0,1,.447-.028,3.988,3.988,0,0,1,2.439.885,4.537,4.537,0,0,1,1.929,2.808,3.641,3.641,0,0,1,.445-.028,3.994,3.994,0,0,1,2.442.884,4.55,4.55,0,0,1,1.929,2.808A3.632,3.632,0,0,1,38.717,40.726Zm-.041,2.383a1.569,1.569,0,0,0-1.157.577l-3.484,4.681a2.155,2.155,0,0,0-.535,1.559,1.976,1.976,0,0,0,.721,1.152l.006,0,.02.015a2.118,2.118,0,0,0,1.245.509,1.271,1.271,0,0,0,.99-.5l3.849-5.172a1.736,1.736,0,0,0,.437-1.024c-.016-.518-.569-1.044-1.03-1.393A1.764,1.764,0,0,0,38.676,43.109Zm-4.814-3.665a1.58,1.58,0,0,0-1.157.577L29.22,44.7a2.152,2.152,0,0,0-.535,1.56,1.988,1.988,0,0,0,.717,1.15c.006.005.024.018.029.021a2.124,2.124,0,0,0,1.252.511,1.236,1.236,0,0,0,.973-.485l3.859-5.187a1.742,1.742,0,0,0,.438-1.025c-.016-.519-.569-1.045-1.03-1.394A1.765,1.765,0,0,0,33.862,39.444Zm-4.813-3.665a1.6,1.6,0,0,0-1.165.586l-3.478,4.673A2.147,2.147,0,0,0,23.87,42.6a1.979,1.979,0,0,0,.721,1.151l.025.02a2.121,2.121,0,0,0,1.246.509,1.27,1.27,0,0,0,.99-.5L30.7,38.606a1.731,1.731,0,0,0,.438-1.023c-.017-.52-.569-1.044-1.03-1.393A1.762,1.762,0,0,0,29.049,35.779Zm-4.815-3.665a1.6,1.6,0,0,0-1.165.585L19.59,37.373a2.154,2.154,0,0,0-.535,1.56,2,2,0,0,0,.718,1.15.311.311,0,0,1,.029.021,2.118,2.118,0,0,0,1.244.508,1.271,1.271,0,0,0,.991-.5l3.85-5.172a1.738,1.738,0,0,0,.438-1.024c-.017-.516-.57-1.043-1.031-1.393A1.766,1.766,0,0,0,24.234,32.115ZM39.1,15.165a1.178,1.178,0,0,1,1.044.635,1.2,1.2,0,0,1,.065.962L54.89,26.48a1.166,1.166,0,0,1,.633.51L56.836,29.2l2.27,3.727c1.17-.73,3.737-2.122,7.846-4.257L58.511,10.028l-3.92,1.525a1.171,1.171,0,0,1-.424.079H33.833l-8.618,8.715a4.783,4.783,0,0,0,2.464,1.283,3.943,3.943,0,0,0,.612.048,6.135,6.135,0,0,0,3.675-1.489c2.189-1.694,3.917-3,5.137-3.888l.015-.031a.815.815,0,0,1,.05-.1,1.175,1.175,0,0,1,.853-.526c.319-.219.468-.31.528-.344A1.178,1.178,0,0,1,39.1,15.165Z" fill="#fff"/>
  </g>
</svg>
