<svg xmlns="http://www.w3.org/2000/svg" width="30" height="30" viewBox="0 0 30 30">
  <path id="Colour" d="M0,15A15,15,0,1,1,15,30,15.016,15.016,0,0,1,0,15Zm3,0A12,12,0,1,0,15,3,12.014,12.014,0,0,0,3,15Zm10.5,7.5A1.5,1.5,0,1,1,15,24,1.5,1.5,0,0,1,13.5,22.5Zm-.043-5.526a1.5,1.5,0,0,1,.786-1.833l.443-.17.288-.124a8.853,8.853,0,0,0,1.324-.721C17.33,13.439,17.879,12.7,17.879,12a3,3,0,0,0-5.74-1.224L12.05,11A1.5,1.5,0,0,1,9.219,10a6,6,0,0,1,11.66,2c0,1.92-1.137,3.436-2.917,4.622a11.33,11.33,0,0,1-2.608,1.3,1.5,1.5,0,0,1-1.9-.948Z" fill="#00d1b6"/>
</svg>
