<svg xmlns="http://www.w3.org/2000/svg" width="20" height="20" viewBox="0 0 20 20"><g><g><path fill="#003d4c" d="M19.167 10A9.167 9.167 0 1 1 .833 10a9.167 9.167 0 0 1 18.334 0zm-16.5 0a7.333 7.333 0 1 0 14.666 0 7.333 7.333 0 0 0-14.666 0zM10 13.667a.917.917 0 1 1 0 1.833.917.917 0 0 1 0-1.833zM6.468 6.946a3.667 3.667 0 0 1 7.125 1.22c0 1.174-.695 2.1-1.76 2.826a7.524 7.524 0 0 1-1.616.794c-.48.16-1-.1-1.134-.58-.175-.445 0-.925.454-1.12l.27-.086.193-.093c.262-.123.54-.271.793-.44.63-.384.967-.87.967-1.3.001-.917-.642-1.66-1.523-1.834a1.877 1.877 0 0 0-1.985 1.084l-.085.137c-.138.478-.661.729-1.139.56-.477-.167-.695-.69-.56-1.168z"/></g></g></svg>