<svg xmlns="http://www.w3.org/2000/svg" width="30" height="23" viewBox="0 0 30 23"><g><g><path fill="#00a792" d="M25.32 3H4.68l4.654 5.12c3.503-2.515 7.958-2.581 11.409-.086zM15 14.352l3.934-4.327c-2.387-1.582-5.338-1.54-7.79.085zm14.667 7.315c0 .736-.597 1.333-1.334 1.333H1.667a1.333 1.333 0 0 1-1.334-1.333V1.673a1.322 1.322 0 0 1 .111-.54A1.344 1.344 0 0 1 1.567.337l.105-.003h26.656a1.34 1.34 0 0 1 .918.362 1.328 1.328 0 0 1 .42.96v.015zM3 20.333h24V5.115L15.987 17.23a1.334 1.334 0 0 1-1.855.116l-.119-.116L3 5.115z"/></g></g></svg>