<svg xmlns="http://www.w3.org/2000/svg" width="550" height="393" viewBox="0 0 550 393"><defs><mask id="2oq6b" width="2" height="2" x="-1" y="-1"><path fill="#fff" d="M147.94 79.72h248.1v248.09h-248.1z"/><path d="M271.99 327.809c68.512 0 124.053-55.537 124.053-124.045 0-68.508-55.541-124.045-124.054-124.045-68.512 0-124.053 55.537-124.053 124.045 0 68.508 55.54 124.045 124.053 124.045z"/></mask><filter id="2oq6a" width="390.5" height="394.09" x="76.74" y="8.52" filterUnits="userSpaceOnUse"><feOffset dy="3.6" in="SourceGraphic" result="FeOffset1053Out"/><feGaussianBlur in="FeOffset1053Out" result="FeGaussianBlur1054Out" stdDeviation="24.48 24.48"/></filter></defs><g><g><path fill="#fff" d="M0 32C0 14.327 14.327 0 32 0h486c17.673 0 32 14.327 32 32v286c0 17.673-14.327 32-32 32H32c-17.673 0-32-14.327-32-32z"/></g><g><g opacity=".5" transform="rotate(-270 149.735 279.27)"><path fill="#00d9b4" d="M205.468 227.723a4.185 4.185 0 0 0-4.186-4.184H98.19c-2.32 0-4.19 1.871-4.19 4.153 0 .096.003.192.014.288 1.393 20.435 12.874 104.557 107.192 107.017 2.334.062 4.262-1.854 4.262-4.194z"/></g><g><g filter="url(#2oq6a)"><path fill="none" d="M271.99 327.809c68.512 0 124.053-55.537 124.053-124.045 0-68.508-55.541-124.045-124.054-124.045-68.512 0-124.053 55.537-124.053 124.045 0 68.508 55.54 124.045 124.053 124.045z" mask="url(&quot;#2oq6b&quot;)"/><path fill-opacity=".32" d="M271.99 327.809c68.512 0 124.053-55.537 124.053-124.045 0-68.508-55.541-124.045-124.054-124.045-68.512 0-124.053 55.537-124.053 124.045 0 68.508 55.54 124.045 124.053 124.045z"/></g><path fill="#00d5b5" d="M271.99 327.809c68.512 0 124.053-55.537 124.053-124.045 0-68.508-55.541-124.045-124.054-124.045-68.512 0-124.053 55.537-124.053 124.045 0 68.508 55.54 124.045 124.053 124.045z"/></g><g><path fill="#0b6882" d="M404.073 97.101a1.8 1.8 0 0 1 2.527.09l24.152 25.602a1.8 1.8 0 0 1-.093 2.562L275.212 267.862a1.8 1.8 0 0 1-2.535-.102l-23.78-25.592a1.8 1.8 0 0 1 .1-2.55z"/></g><g transform="rotate(1 249.71 217.195)"><path fill="#004052" d="M200.792 192.51a3.6 3.6 0 0 1 .191-5.167l12.357-11.123c7.231-6.509 18.326-6.094 25.05.937l60.42 63.17a3.6 3.6 0 0 1-.024 5.001l-21.285 21.847a3.6 3.6 0 0 1-5.178-.022z"/></g><g opacity=".5" transform="rotate(-223 276.465 191.34)"><path fill="#192f2b" d="M332.2 139.795a4.185 4.185 0 0 0-4.186-4.184H224.922c-2.32 0-4.19 1.871-4.19 4.153 0 .096.003.192.014.288 1.393 20.435 12.874 104.557 107.192 107.017 2.334.062 4.262-1.854 4.262-4.194z"/></g><g><path fill="#00d5b5" d="M297.16 22.191a3.596 3.596 0 1 0 0-7.191 3.596 3.596 0 0 0 0 7.191z"/></g><g><path fill="#00d5b5" d="M297.16 65.337a3.596 3.596 0 1 0 0-7.191 3.596 3.596 0 0 0 0 7.191z"/></g><g><path fill="#00d5b5" d="M354.691 22.191a3.596 3.596 0 1 0 0-7.191 3.596 3.596 0 0 0 0 7.191z"/></g><g><path fill="#00d5b5" d="M354.691 65.337a3.596 3.596 0 1 0 0-7.191 3.596 3.596 0 0 0 0 7.191z"/></g><g><path fill="#00d5b5" d="M412.223 23.989a3.596 3.596 0 1 0 0-7.191 3.596 3.596 0 0 0 0 7.19z"/></g><g><path fill="#00d5b5" d="M412.223 65.337a3.596 3.596 0 1 0 0-7.191 3.596 3.596 0 0 0 0 7.191z"/></g><g><path fill="#003b4b" d="M297.16 112.079a3.596 3.596 0 1 0 0-7.192 3.596 3.596 0 0 0 0 7.192z"/></g><g><path fill="#00d5b5" d="M354.691 112.079a3.596 3.596 0 1 0 0-7.192 3.596 3.596 0 0 0 0 7.192z"/></g><g><path fill="#00d5b5" d="M412.223 112.079a3.596 3.596 0 1 0 0-7.192 3.596 3.596 0 0 0 0 7.192z"/></g></g></g></svg>