<?xml version="1.0" encoding="UTF-8"?>
<svg width="60px" height="46px" viewBox="0 0 60 46" version="1.1" xmlns="http://www.w3.org/2000/svg" xmlns:xlink="http://www.w3.org/1999/xlink">
    <title>3. Icons / Normal / Comms / Mail</title>
    <g id="Symbols" stroke="none" stroke-width="1" fill="none" fill-rule="evenodd">
        <g id="13.-Sections/A.-CW/8.-Contacts/Channels" transform="translate(-1025.000000, -148.000000)" fill="#00D1B6">
            <g id="3.-Icons-/-Normal-/-Comms-/-Mail" transform="translate(1023.000000, 138.000000)">
                <path d="M58.7104125,10.6669919 L58.7853964,10.6692625 C58.8084889,10.6702743 58.8315052,10.6715798 58.8544416,10.6731753 C58.8810661,10.6750328 58.9080606,10.6773279 58.9350255,10.6800336 C58.9676784,10.6832717 58.9996107,10.6870553 59.031365,10.691398 C59.0547561,10.6946726 59.0785334,10.6982566 59.1022711,10.7021637 C59.1325218,10.7070412 59.1624713,10.7124962 59.1922419,10.7184469 C59.2170075,10.7235177 59.2413281,10.7287405 59.2655894,10.7343079 C59.2970976,10.7414206 59.328423,10.7492173 59.3595239,10.7575624 C59.378387,10.7627234 59.3977286,10.7681404 59.4170216,10.7737809 C59.4565766,10.7852724 59.4952747,10.7975852 59.5335785,10.8107459 C59.5475695,10.8155935 59.561614,10.8205444 59.575626,10.8256173 C59.6134726,10.8393129 59.6508007,10.8538186 59.6877105,10.8691293 C59.7019148,10.8749819 59.7162111,10.8810516 59.730466,10.8872526 C59.7686299,10.9039265 59.8063434,10.9214211 59.843567,10.9397584 C59.8592435,10.9473692 59.8752167,10.9554311 59.891127,10.9636652 C59.926054,10.9818765 59.9601108,11.0004781 59.9937072,11.0197905 C60.0079626,11.0278517 60.0222614,11.0362493 60.0365001,11.0447927 C60.1845175,11.1336971 60.3233941,11.2365917 60.4510924,11.3516531 C60.4545765,11.3548222 60.4575208,11.3574871 60.4604608,11.3601598 L60.4988063,11.3957033 C60.5218917,11.4175395 60.5445872,11.4397838 60.566881,11.4624247 L60.4604608,11.3601598 C60.5200712,11.4143511 60.5766613,11.4706245 60.6302208,11.5287685 C60.6479641,11.5482813 60.6658899,11.5683665 60.6835126,11.5887213 C60.7047356,11.6128642 60.7250358,11.637144 60.7448405,11.6617032 C60.756935,11.6771792 60.7692367,11.692803 60.781366,11.7085663 C60.8369576,11.7802189 60.8881815,11.8543429 60.9352598,11.9303856 C60.9501906,11.9550676 60.9654088,11.9805449 60.9802095,12.0062928 C60.993569,12.0290544 61.0058358,12.0511808 61.0177665,12.0734456 C61.1217636,12.2673614 61.2029433,12.4766116 61.2568342,12.6965755 C61.2609025,12.7146803 61.2649486,12.7319707 61.2688209,12.7492939 C61.2890789,12.8382133 61.3046414,12.9296918 61.3154256,13.0226273 C61.3185086,13.0509129 61.3212944,13.0785203 61.3236512,13.1061612 C61.3300886,13.1805366 61.3333333,13.256556 61.3333333,13.3333333 L61.3295782,13.1918612 C61.3314041,13.2262519 61.3325679,13.2606772 61.3330686,13.2951161 L61.3333333,13.3333333 L61.3333333,53.3333333 C61.3333333,54.8060927 60.139426,56 58.6666667,56 L58.6666667,56 L5.33333333,56 C3.860574,56 2.66666667,54.8060927 2.66666667,53.3333333 L2.66666667,53.3333333 L2.66666667,13.3333333 C2.66666667,13.2955703 2.66745162,13.2579905 2.66900609,13.2206096 C2.66946311,13.2107776 2.66997508,13.2001138 2.67055067,13.1894534 C2.67304263,13.1415701 2.67677816,13.0948462 2.68170212,13.0484772 C2.68272312,13.0407198 2.68369155,13.0320466 2.68470236,13.0233778 C2.68831177,12.9904194 2.69262307,12.9583864 2.69749778,12.9265389 C2.70172267,12.9008884 2.70616583,12.874561 2.71100381,12.8482959 C2.7512367,12.6277112 2.81879565,12.4169484 2.90983832,12.219231 C2.9684274,12.0915048 3.0377065,11.9674506 3.1174952,11.848575 C3.13161451,11.8281793 3.14541893,11.8082207 3.159486,11.788462 C3.17461684,11.766607 3.19056608,11.7449094 3.20688178,11.7234096 C3.22441116,11.700842 3.2418492,11.6785916 3.25962906,11.6566292 C3.28071053,11.6301592 3.30289159,11.6038392 3.32565701,11.5778681 C3.33531973,11.5671447 3.34483297,11.5564486 3.35443048,11.54583 C3.41237717,11.4815727 3.47414044,11.4196132 3.53953922,11.3601598 L3.55610551,11.345191 C3.63644172,11.273328 3.72115973,11.2062623 3.8098093,11.1444444 L3.83990512,11.1236701 C3.84645535,11.119231 3.85302035,11.1148246 3.8595999,11.1104507 C3.89704415,11.0856679 3.9354787,11.0615122 3.9745562,11.0383262 C3.99500151,11.0260617 4.01562711,11.0141951 4.03636959,11.0026289 C4.06435175,10.9871534 4.09271844,10.9719981 4.12138525,10.9573465 C4.14420233,10.9455753 4.16724993,10.9342227 4.1904183,10.9232256 C4.22309961,10.9077951 4.25579857,10.8930681 4.2888398,10.8789888 C4.30811323,10.8707387 4.32788977,10.8626002 4.34773875,10.8547111 C4.50901329,10.7905752 4.67749941,10.7418105 4.85190548,10.7100107 C4.85963427,10.7087069 4.8669364,10.7074066 4.8742425,10.706137 C4.92128458,10.697864 4.96927632,10.6908617 5.01766473,10.6851549 C5.04757685,10.6816702 5.07718321,10.6786709 5.10681894,10.6761663 C5.1812123,10.6698826 5.25689726,10.6666667 5.33333333,10.6666667 L5.17972603,10.6710056 C5.21870018,10.6687807 5.25770617,10.6674084 5.29671386,10.6668872 L5.33333333,10.6666667 L58.7104125,10.6669919 L58.7104125,10.6669919 Z M55.9996667,20.2306667 L33.9731735,44.4604608 C32.9907196,45.5411601 31.342384,45.6183529 30.2648041,44.6920392 L30.0268265,44.4604608 L7.99966667,20.2306667 L8,50.6666667 L56,50.6666667 L55.9996667,20.2306667 Z M24.2869509,30.2198891 L32,38.704 L39.8673061,30.0493978 C35.0946088,26.8862676 29.1910893,26.9715247 24.2869509,30.2198891 Z M52.6376667,15.9996667 L11.3606667,15.9996667 L20.6687394,26.2380264 C27.6748183,21.2107212 36.5842325,21.0776157 43.4854529,26.0682411 L52.6376667,15.9996667 Z" id="Colour"></path>
            </g>
        </g>
    </g>
</svg>