<svg xmlns="http://www.w3.org/2000/svg" width="60" height="60" viewBox="0 0 60 60"><g><g><g><g><path fill="#fff" d="M60 30c0 16.569-13.431 30-30 30C13.431 60 0 46.569 0 30 0 13.431 13.431 0 30 0c16.569 0 30 13.431 30 30zM5.455 30c0 13.556 10.989 24.545 24.545 24.545 13.556 0 24.545-10.989 24.545-24.545C54.545 16.444 43.556 5.455 30 5.455 16.444 5.455 5.455 16.444 5.455 30z"/></g></g><g><path fill="#fff" d="M24.942 16.65a.25.25 0 0 0-.397.203v26.301a.25.25 0 0 0 .394.205L43.35 30.385a.25.25 0 0 0 .003-.407z"/></g></g></g></svg>