<?xml version="1.0" encoding="UTF-8"?>
<svg width="28px" height="21px" viewBox="0 0 28 21" version="1.1" xmlns="http://www.w3.org/2000/svg" xmlns:xlink="http://www.w3.org/1999/xlink">
    <title>3. Icons / Normal / Action / Show</title>
    <g id="Page-1" stroke="none" stroke-width="1" fill="none" fill-rule="evenodd">
        <g id="5.1-—-Customer-Support" transform="translate(-1081.000000, -829.000000)" fill="#00D1B6">
            <g id="FAQs" transform="translate(48.000000, 722.000000)">
                <g id="Group-15" transform="translate(1032.000000, 98.000000)">
                    <g id="3.-Icons-/-Normal-/-Action-/-Show" transform="translate(0.000000, 4.000000)">
                        <path d="M15,10.6818182 C12.4268551,10.6818182 10.3409091,12.7677642 10.3409091,15.3409091 C10.3409091,17.9140539 12.4268551,20 15,20 C17.5731449,20 19.6590909,17.9140539 19.6590909,15.3409091 C19.6590909,12.7677642 17.5731449,10.6818182 15,10.6818182 Z M15,13.1818182 C16.192433,13.1818182 17.1590909,14.1484761 17.1590909,15.3409091 C17.1590909,16.5333421 16.192433,17.5 15,17.5 C13.807567,17.5 12.8409091,16.5333421 12.8409091,15.3409091 C12.8409091,14.1484761 13.807567,13.1818182 15,13.1818182 Z M15,5 C11.1232583,5 7.7335949,6.87015912 4.85512395,9.94052813 C3.86792067,10.993545 3.01087065,12.117545 2.28446782,13.2422978 L2.12622044,13.4904433 L1.84849673,13.9431022 L1.62269834,14.3321083 L1.44910197,14.6508895 C1.42453478,14.6978025 1.40215421,14.7415157 1.38196601,14.7818921 C1.20601133,15.1338015 1.20601133,15.5480167 1.38196601,15.8999261 L1.52935761,16.1811305 L1.72908957,16.5358456 L1.98088521,16.9574995 C2.07346362,17.1084771 2.1746732,17.2695158 2.28446782,17.4395204 C3.01087065,18.5642732 3.86792067,19.6882732 4.85512395,20.74129 C7.7335949,23.8116591 11.1232583,25.6818182 15,25.6818182 C18.8767417,25.6818182 22.2664051,23.8116591 25.1448761,20.74129 C26.1320793,19.6882732 26.9891294,18.5642732 27.7155322,17.4395204 L27.8737796,17.1913749 L28.1515033,16.7387159 L28.3773017,16.3497099 L28.550898,16.0309287 C28.5754652,15.9840157 28.5978458,15.9403025 28.618034,15.8999261 C28.7939887,15.5480167 28.7939887,15.1338015 28.618034,14.7818921 L28.4706424,14.5006877 L28.2709104,14.1459726 L28.0191148,13.7243187 C27.9265364,13.5733411 27.8253268,13.4123023 27.7155322,13.2422978 C26.9891294,12.117545 26.1320793,10.993545 25.1448761,9.94052813 C22.2664051,6.87015912 18.8767417,5 15,5 Z M15,7.5 C18.0834856,7.5 20.8727994,9.03893178 23.321033,11.650381 C24.1981764,12.5860005 24.9657712,13.5926823 25.6154337,14.5986113 L25.779439,14.8566607 C25.8848131,15.025214 25.9822453,15.1866203 26.0725,15.34 L25.9315314,15.5778285 C25.8341238,15.7389534 25.7287251,15.907788 25.6154337,16.0832068 C24.9657712,17.0891359 24.1981764,18.0958177 23.321033,19.0314372 C20.8727994,21.6428864 18.0834856,23.1818182 15,23.1818182 C11.9165144,23.1818182 9.12720056,21.6428864 6.67896696,19.0314372 C5.80182365,18.0958177 5.03422878,17.0891359 4.38456627,16.0832068 L4.22056102,15.8251574 C4.11518691,15.6566042 4.01775471,15.4951979 3.92625,15.34 L4.06846861,15.1039897 C4.16587617,14.9428648 4.27127492,14.7740302 4.38456627,14.5986113 C5.03422878,13.5926823 5.80182365,12.5860005 6.67896696,11.650381 C9.12720056,9.03893178 11.9165144,7.5 15,7.5 Z" id="Colour"></path>
                    </g>
                </g>
            </g>
        </g>
    </g>
</svg>