<?xml version="1.0" encoding="UTF-8"?>
<svg width="26px" height="28px" viewBox="0 0 26 28" version="1.1" xmlns="http://www.w3.org/2000/svg" xmlns:xlink="http://www.w3.org/1999/xlink">
    <title>3. Icons / Normal / Nav / Loans </title>
    <g id="Page-1" stroke="none" stroke-width="1" fill="none" fill-rule="evenodd">
        <g id="5.1-—-Customer-Support" transform="translate(-738.000000, -825.000000)" fill="#00D1B6">
            <g id="FAQs" transform="translate(48.000000, 722.000000)">
                <g id="Group-12" transform="translate(688.000000, 98.000000)">
                    <g id="3.-Icons-/-Normal-/-Nav-/-Loans-" transform="translate(0.000000, 4.000000)">
                        <path d="M15,1.25 C15.6410448,1.25 16.169384,1.60556333 16.2415903,2.06363844 L16.25,2.17105263 L16.2506985,3.81178842 C22.567017,4.43926747 27.5,9.76855379 27.5,16.25 C27.5,23.1535594 21.9035594,28.75 15,28.75 C8.09644063,28.75 2.5,23.1535594 2.5,16.25 C2.5,9.76821032 7.43350578,4.43870266 13.7503057,3.81168871 L13.75,2.17105263 C13.75,1.66236931 14.3096441,1.25 15,1.25 Z M16.250922,6.32748221 L16.249,15.339 L19.3670718,11.6328449 C19.7640156,11.1624415 20.3893238,11.1254215 20.822205,11.5223756 L20.9261729,11.6306556 C21.3240608,12.0999429 21.355374,12.839214 21.0196127,13.3509882 L20.9280247,13.4739044 L15.7594102,19.6171551 C15.3617994,20.0883488 14.7352219,20.1245945 14.3023854,19.7258921 L14.1984572,19.6171551 L9.07197529,13.4739044 C8.64195277,12.9643007 8.64278185,12.1390501 9.07382711,11.6306556 C9.47171503,11.1613683 10.0970958,11.1261045 10.5291782,11.5242732 L10.6329282,11.6328449 L13.749,15.375 L13.749078,6.32748221 C8.81663491,6.94301415 5,11.1507957 5,16.25 C5,21.7728475 9.4771525,26.25 15,26.25 C20.5228475,26.25 25,21.7728475 25,16.25 C25,11.1507957 21.1833651,6.94301415 16.250922,6.32748221 Z" id="Colour"></path>
                    </g>
                </g>
            </g>
        </g>
    </g>
</svg>