<svg xmlns="http://www.w3.org/2000/svg" width="30" height="30" viewBox="0 0 30 30"><g><g><path fill="#00a792" d="M24.333 23h-3.672v-6.622c0-3.98-4.896-3.68-4.896 0V23h-3.672V10h3.672v2.087c1.709-3.056 8.568-3.282 8.568 2.926zM7.81 8.502c-1.183 0-2.142-.933-2.142-2.084s.96-2.085 2.142-2.085 2.142.934 2.142 2.085c0 1.15-.959 2.084-2.142 2.084zM9.645 23H5.973V10h3.672zM23.555.333H6.446A6.112 6.112 0 0 0 .332 6.444v17.112a6.112 6.112 0 0 0 6.111 6.11h17.112a6.111 6.111 0 0 0 6.11-6.11V6.444a6.111 6.111 0 0 0-6.11-6.11z"/></g></g></svg>