<?xml version="1.0" encoding="UTF-8"?>
<svg width="28px" height="24px" viewBox="0 0 28 24" version="1.1" xmlns="http://www.w3.org/2000/svg" xmlns:xlink="http://www.w3.org/1999/xlink">
    <title>3. Icons / Normal / Nav / Accounts</title>
    <g id="Page-1" stroke="none" stroke-width="1" fill="none" fill-rule="evenodd">
        <g id="5.1-—-Customer-Support" transform="translate(-49.000000, -827.000000)" fill="#00D1B6">
            <g id="FAQs" transform="translate(48.000000, 722.000000)">
                <g id="Group-4" transform="translate(0.000000, 98.000000)">
                    <g id="3.-Icons-/-Normal-/-Nav-/-Accounts" transform="translate(0.000000, 4.000000)">
                        <path d="M27.5,3.75 C28.1410448,3.75 28.669384,4.23255024 28.7415903,4.85422359 L28.75,5 L28.75,17.5 C28.75,18.1410448 28.2674498,18.669384 27.6457764,18.7415903 L27.5,18.75 L23.75,18.75 L23.75,25 C23.75,25.6472087 23.2581253,26.1795339 22.6278052,26.2435464 L22.5,26.25 L2.5,26.25 C1.80964406,26.25 1.25,25.6903559 1.25,25 L1.25,25 L1.25,11.25 C1.25,10.5596441 1.80964406,10 2.5,10 L2.5,10 L6.25,10 L6.25,5 C6.25,4.3589552 6.73255024,3.83061605 7.35422359,3.75840966 L7.5,3.75 L27.5,3.75 Z M21.25,12.5 L3.75,12.5 L3.75,23.75 L21.25,23.75 L21.25,12.5 Z M11.25,17.5 C12.6307119,17.5 13.75,18.6192881 13.75,20 C13.75,21.3807119 12.6307119,22.5 11.25,22.5 C10.658462,22.5 10.1149088,22.2945524 9.68680219,21.9511188 C9.26009123,22.2945524 8.71653805,22.5 8.125,22.5 C6.74428813,22.5 5.625,21.3807119 5.625,20 C5.625,18.6192881 6.74428813,17.5 8.125,17.5 C8.71653805,17.5 9.26009123,17.7054476 9.68819781,18.0488812 C10.1149088,17.7054476 10.658462,17.5 11.25,17.5 Z M26.25,6.25 L8.75,6.25 L8.75,10 L22.5,10 C23.1903559,10 23.75,10.5596441 23.75,11.25 L23.75,11.25 L23.75,16.25 L26.25,16.25 L26.25,6.25 Z" id="Colour"></path>
                    </g>
                </g>
            </g>
        </g>
    </g>
</svg>