<?xml version="1.0" encoding="UTF-8"?>
<svg width="52px" height="60px" viewBox="0 0 52 60" version="1.1" xmlns="http://www.w3.org/2000/svg" xmlns:xlink="http://www.w3.org/1999/xlink">
    <title>3. Icons / Normal / Info / Protect</title>
    <g id="Symbols" stroke="none" stroke-width="1" fill="none" fill-rule="evenodd">
        <g id="13.-Sections/A.-CW/8.-Contacts/Channels" transform="translate(-570.000000, -140.000000)" fill="#00D1B6">
            <g id="3.-Icons-/-Normal-/-Info-/-Protect" transform="translate(564.000000, 138.000000)">
                <path d="M31.4943474,2.73919792 C31.8244066,2.64248958 32.176415,2.64248958 32.506122,2.73919792 L32.506122,2.73919792 L56.0788267,9.64284375 C56.8235726,9.86089583 57.3333333,10.5300625 57.3333333,11.2890625 L57.3333333,11.2890625 L57.3333333,36.6023542 C57.3333333,39.8949062 55.9680245,43.2652604 53.2753191,46.6198021 C51.2186701,49.1818854 48.3734942,51.754625 44.818785,54.2666354 C41.1519515,56.8577867 37.519637,58.8339087 35.2047062,59.998351 L34.8210052,60.1899818 C33.5866145,60.8020028 32.8063267,61.1453162 32.7195102,61.1832292 C32.4906285,61.283375 32.2453142,61.3333333 32.0001174,61.3333333 C31.7548031,61.3333333 31.5096062,61.2832604 31.2807245,61.1832292 C31.0332975,61.0751771 25.1530326,58.4865104 19.1813324,54.2666354 C15.6265058,51.754625 12.7813299,49.1818854 10.7246809,46.6198021 C8.03197549,43.2651458 6.66666667,39.8947917 6.66666667,36.6023542 L6.66666667,36.6023542 L6.66666667,11.2890625 C6.66666667,10.5300625 7.1766621,9.86089583 7.92140801,9.64284375 L7.92140801,9.64284375 Z M13.7738665,42.0711999 L13.6906983,42.1163186 C15.7420496,45.4633019 19.3399271,48.3110802 22.6666667,50.6666667 C27.1708242,53.8558646 30.2731754,55.1870313 32.0002347,56 C33.7272941,55.1870313 36.8291758,53.8558646 41.3333333,50.6666667 C41.7985197,50.3372714 42.2690099,50.0048149 42.7398335,49.6680626 L43.3046638,49.2618189 C46.1574352,47.1970626 48.9493203,44.9560703 50.5709334,42.2632897 L50.7645303,42.3632024 C38.0425994,35.7122446 25.8140892,35.6235651 13.7738665,42.0711999 Z M32.0001174,8 L12,13.3333333 L12,36.6023542 C12,36.7271321 12.0025876,36.8513841 12.0077012,36.9751105 C24.9960543,30.2877381 38.414744,30.3066747 51.9999742,37.0090661 L52,13.3333333 L32.0001174,8 Z" id="Colour"></path>
            </g>
        </g>
    </g>
</svg>