<svg xmlns="http://www.w3.org/2000/svg" width="8" height="10" viewBox="0 0 8 10"><g><g><path fill="#7f9ea5" d="M6.77 9.615a.852.852 0 0 0 .85-.853.863.863 0 0 0-.85-.865H3.613V6.165h2.232a.815.815 0 0 0 .792-.814c0-.453-.375-.827-.792-.827H3.614v-.995c0-.375.13-.75.336-.957.194-.194.427-.284.737-.284.426 0 .736.168 1.072.517.087.13.362.297.711.297a.97.97 0 0 0 .672-1.68C6.574.841 5.846.44 4.661.44c-.995 0-1.758.297-2.287.868-.504.463-.776 1.238-.776 2.169v1.047h-.232a.833.833 0 0 0-.828.827c0 .452.375.814.828.814h.232v1.822l-.517.168a.766.766 0 0 0-.543.737c0 .4.324.723.802.723z"/></g></g></svg>