<svg xmlns="http://www.w3.org/2000/svg" width="32" height="32" viewBox="0 0 32 32"><g><g><path fill="#00d1b6" d="M29.708 1.538a4.655 4.655 0 0 1 0 6.583L15.58 22.248a1.5 1.5 0 0 1-.697.395L8.935 24.13a1.5 1.5 0 0 1-1.82-1.819l1.488-5.948a1.5 1.5 0 0 1 .394-.697L23.125 1.538a4.654 4.654 0 0 1 6.583 0zM25.246 3.66L11.412 17.493l-.78 3.12 3.12-.78L27.586 6c.266-.266.432-.614.474-.984l.01-.186a1.655 1.655 0 0 0-2.824-1.17zM14.357 2.532a1.5 1.5 0 0 1 .175 2.99l-.175.01h-10A1.357 1.357 0 0 0 3.012 6.71L3 6.89v20a1.357 1.357 0 0 0 1.179 1.345l.178.012h20a1.357 1.357 0 0 0 1.345-1.179l.012-.178v-10a1.5 1.5 0 0 1 2.99-.175l.01.175v10a4.357 4.357 0 0 1-4.043 4.346l-.314.01h-20a4.356 4.356 0 0 1-4.346-4.042L0 26.889v-20a4.357 4.357 0 0 1 4.043-4.346l.314-.011z"/></g></g></svg>