<?xml version="1.0" encoding="UTF-8"?>
<svg width="58px" height="57px" viewBox="0 0 58 57" version="1.1" xmlns="http://www.w3.org/2000/svg" xmlns:xlink="http://www.w3.org/1999/xlink">
    <title>3. Icons / Normal / Comms / Phone</title>
    <g id="Symbols" stroke="none" stroke-width="1" fill="none" fill-rule="evenodd">
        <g id="13.-Sections/A.-CW/8.-Contacts/Channels" transform="translate(-109.000000, -142.000000)" fill="#00D1B6">
            <g id="3.-Icons-/-Normal-/-Comms-/-Phone" transform="translate(106.000000, 138.000000)">
                <path d="M13.6718325,5.0070457 L26.548761,17.9172186 C27.5878679,18.959008 27.5867808,20.6455736 26.5463318,21.6860226 L15.6011583,32.6305663 L31.7311583,48.7605663 L42.7100114,37.8115994 C43.7518007,36.7724925 45.4383663,36.7735795 46.4788153,37.8140285 L59.3557453,50.6909585 C60.3971434,51.7323566 60.3971434,53.4207966 59.3557453,54.4621947 C51.1934358,62.6245042 37.9597173,62.6245042 29.7974078,54.4621947 C29.6552432,54.3200301 29.5324885,54.165812 29.4291417,54.0028318 L10.3600821,34.9328331 C10.1961553,34.829149 10.0410686,34.7058555 9.89816566,34.5629526 C9.50085453,34.1656414 9.12288305,33.7563142 8.7642512,33.3361406 L8.70897651,33.2803557 C8.57272693,33.1441061 8.45430333,32.9967809 8.35370572,32.8412781 C1.77316063,24.6345098 2.28766298,12.6151177 9.89816566,5.00461504 C10.9405131,3.96226756 12.630828,3.96335702 13.6718325,5.0070457 Z M44.5908461,43.4690413 L35.6171897,52.4162991 L35.7764519,52.5280015 C41.0622475,56.1581241 48.0909056,56.1581241 53.3767013,52.5280015 L53.5343327,52.4125278 L44.5908461,43.4690413 Z M11.9459469,10.8236324 L11.8323588,10.9836591 C8.2022362,16.2694548 8.2022362,23.2981128 11.8323588,28.5839085 L11.9459469,28.7407755 L20.8913191,19.7954033 L11.9459469,10.8236324 Z" id="Colour"></path>
            </g>
        </g>
    </g>
</svg>