<?xml version="1.0" encoding="UTF-8"?>
<svg width="20px" height="27px" viewBox="0 0 20 27" version="1.1" xmlns="http://www.w3.org/2000/svg" xmlns:xlink="http://www.w3.org/1999/xlink">
    <title>3. Icons / Normal / Action / Lock</title>
    <g id="Page-1" stroke="none" stroke-width="1" fill="none" fill-rule="evenodd">
        <g id="5.1-—-Customer-Support" transform="translate(-397.000000, -825.000000)" fill="#00D1B6">
            <g id="FAQs" transform="translate(48.000000, 722.000000)">
                <g id="Group-11" transform="translate(344.000000, 98.000000)">
                    <g id="3.-Icons-/-Normal-/-Action-/-Lock" transform="translate(0.000000, 4.000000)">
                        <path d="M15,1.25 C18.2057046,1.25 20.8169291,3.79519273 20.9557348,6.98291032 L20.9615385,7.25 L20.961,10 L23.75,10 C24.3910448,10 24.919384,10.4825502 24.9915903,11.1042236 L25,11.25 L25,17.421875 L24.998,17.461 L25,17.5 C25,22.8753188 20.7581564,27.2606669 15.4391388,27.4905297 C15.434495,27.4907058 15.4307632,27.4911563 15.4270264,27.4915903 L15.28125,27.5 L6.25,27.5 C5.6089552,27.5 5.08061605,27.0174498 5.00840966,26.3957764 L5,26.25 L5,11.25 C5,10.6089552 5.48255024,10.080616 6.10422359,10.0084097 L6.25,10 L9.038,10 L9.03846154,7.25 C9.03846154,3.93855621 11.7052481,1.25 15,1.25 Z M22.5,12.5 L7.5,12.5 L7.5,25 L13.75,25 L13.75,17.5 C13.75,16.8527913 14.2418747,16.3204661 14.8721948,16.2564536 L15,16.25 L22.5,16.25 L22.5,12.5 Z M22.39375,18.75 L16.25,18.75 L16.25,24.89375 L16.377899,24.8736818 C19.3258378,24.3261933 21.6682365,22.0542797 22.3192009,19.1441251 L22.3736896,18.8778376 L22.39375,18.75 Z M15,3.75 C13.1612514,3.75 11.6539199,5.20097852 11.544788,7.03655642 L11.5384615,7.25 L11.538,10 L18.461,10 L18.4615385,7.25 C18.4615385,5.31473867 16.9094697,3.75 15,3.75 Z" id="Colour"></path>
                    </g>
                </g>
            </g>
        </g>
    </g>
</svg>