<?xml version="1.0" encoding="UTF-8"?>
<svg width="22px" height="14px" viewBox="0 0 22 14" version="1.1" xmlns="http://www.w3.org/2000/svg" xmlns:xlink="http://www.w3.org/1999/xlink">
    <title>3. Icons / Normal / Direction / Progress / Up</title>
    <g id="Page-1" stroke="none" stroke-width="1" fill="none" fill-rule="evenodd">
        <g id="5.1-—-Customer-Support" transform="translate(-109.000000, -593.000000)" fill="#00D1B6">
            <g id="Trending-Topics" transform="translate(48.000000, 560.000000)">
                <g id="3.-Icons-/-Normal-/-Direction-/-Progress-/-Up" transform="translate(60.624377, 28.534603)">
                    <path d="M21.2085634,5.21219268 C21.7305532,5.21696434 22.1564652,5.64323475 22.1532054,6.1528666 L22.1211125,11.170077 L22.1149511,11.2660099 C22.053363,11.7298615 21.660058,12.0470008 21.2012373,12.014907 C20.712172,11.9806976 20.3213523,11.5634763 20.3244693,11.0761798 L20.3397374,8.48319268 L14.0921126,14.5523396 C13.7808676,14.8546682 13.3162367,14.9177222 12.9291845,14.7172872 L12.8156271,14.6492278 L12.7086798,14.5619973 L9.068,11.123 L2.42277907,17.7103017 C2.09897325,18.031188 1.60555674,18.0882225 1.21075014,17.8590367 L1.21075014,17.8590367 L1.105722,17.7894182 L1.00858001,17.7038973 C0.658522303,17.3506546 0.622469903,16.7955612 0.929463502,16.3868403 L0.929463502,16.3868403 L1.01498443,16.2896983 L8.34849343,9.02231163 C8.68992916,8.68395445 9.22206323,8.63765004 9.63133245,8.91786519 L9.63133245,8.91786519 L9.73908814,9.00566998 L13.384,12.449 L18.6897374,7.29619268 L16.4090813,7.55077192 L16.2970233,7.55623677 C15.8526703,7.55020138 15.4618189,7.21892892 15.3838724,6.77692807 C15.296597,6.2820273 15.631195,5.82920592 16.1279212,5.77378329 L21.1142922,5.21742496 L21.2085634,5.21219268 Z" id="Colour"></path>
                </g>
            </g>
        </g>
    </g>
</svg>