<svg xmlns="http://www.w3.org/2000/svg" width="30" height="28" viewBox="0 0 30 28"><g><g><path fill="#00d1b6" d="M28.5 8a1.5 1.5 0 0 1 .175 2.99L28.5 11H15a1.5 1.5 0 0 1-.175-2.99L15 8zm0-7.5a1.5 1.5 0 0 1 .175 2.99l-.175.01H15a1.5 1.5 0 0 1-.175-2.99L15 .5zm0 24a1.5 1.5 0 0 1 .175 2.99l-.175.01H15a1.5 1.5 0 0 1-.175-2.99L15 24.5zm0-7.5a1.5 1.5 0 0 1 .175 2.99L28.5 20H15a1.5 1.5 0 0 1-.175-2.99L15 17zm-18 1.5V26A1.5 1.5 0 0 1 9 27.5H1.5A1.5 1.5 0 0 1 0 26v-7.5A1.5 1.5 0 0 1 1.5 17H9a1.5 1.5 0 0 1 1.5 1.5zM3 20v4.5h4.5V20zm7.5-18v7.5A1.5 1.5 0 0 1 9 11H1.5A1.5 1.5 0 0 1 0 9.5V2A1.5 1.5 0 0 1 1.5.5H9A1.5 1.5 0 0 1 10.5 2zM3 3.5V8h4.5V3.5z"/></g></g></svg>