<?xml version="1.0" encoding="UTF-8"?>
<svg width="190px" height="190px" viewBox="0 0 190 190" version="1.1" xmlns="http://www.w3.org/2000/svg" xmlns:xlink="http://www.w3.org/1999/xlink">
    <title>Illustration</title>
    <defs>
        <ellipse id="path-1" cx="86.8876229" cy="92.0224719" rx="60.5585106" ry="60.4719101"></ellipse>
        <filter x="-42.9%" y="-41.3%" width="185.9%" height="186.0%" filterUnits="objectBoundingBox" id="filter-2">
            <feOffset dx="0" dy="2" in="SourceAlpha" result="shadowOffsetOuter1"></feOffset>
            <feGaussianBlur stdDeviation="17" in="shadowOffsetOuter1" result="shadowBlurOuter1"></feGaussianBlur>
            <feColorMatrix values="0 0 0 0 0   0 0 0 0 0   0 0 0 0 0  0 0 0 0.316078453 0" type="matrix" in="shadowBlurOuter1"></feColorMatrix>
        </filter>
    </defs>
    <g id="Page-1" stroke="none" stroke-width="1" fill="none" fill-rule="evenodd">
        <g id="2.2.x-—-Mortgage-Calculator-(Step-4)" transform="translate(-629.000000, -236.000000)">
            <g id="Group-12" transform="translate(414.000000, 98.000000)">
                <g id="Group-8" transform="translate(223.000675, 139.000000)">
                    <path d="M54.3756487,103.666803 C54.3756487,102.539356 53.4623642,101.624351 52.3349765,101.624351 L2.08091487,101.624351 C0.950181757,101.624351 0.0385700014,102.537683 0.0385700014,103.651748 C0.0385700014,103.698585 0.0402426835,103.745423 0.0452607299,103.79226 C0.72436967,113.768656 6.32116404,154.836814 52.2981775,156.037863 C53.4356013,156.067972 54.3756487,155.132894 54.3756487,153.990393 L54.3756487,103.666803 Z" id="Fill-1" fill="#00D9B4" opacity="0.5" transform="translate(27.207109, 128.831461) rotate(-270.000000) translate(-27.207109, -128.831461) "></path>
                    <g id="Oval">
                        <use fill="black" fill-opacity="1" filter="url(#filter-2)" xlink:href="#path-1"></use>
                        <use fill="#00D5B5" fill-rule="evenodd" xlink:href="#path-1"></use>
                    </g>
                    <path d="M152.679473,40.1547572 L164.301818,52.4583042 C164.68107,52.8597846 164.66305,53.4926931 164.26157,53.8719449 C164.257785,53.8755203 164.253972,53.879066 164.250132,53.8825817 L88.5468724,123.189197 C88.1418506,123.559996 87.513601,123.534834 87.1395309,123.132832 L75.6965165,110.835342 C75.3202916,110.431024 75.3430659,109.798269 75.7473843,109.422044 C75.7490636,109.420481 75.7507482,109.418924 75.7524382,109.417373 L151.276367,40.1046998 C151.679129,39.7350616 152.304075,39.7573573 152.679473,40.1547572 Z" id="Rectangle" fill="#0B6882"></path>
                    <path d="M52.4100412,83.8468301 L57.7315768,79.0634061 C61.5538493,75.6276403 67.4133878,75.8468335 70.9682873,79.5585639 L99.811135,109.673867 C100.5569,110.452533 100.551206,111.682197 99.7982618,112.453923 L89.7474546,122.755441 C88.9760859,123.546051 87.709852,123.561649 86.919242,122.790281 C86.903526,122.774947 86.8880634,122.759356 86.8728608,122.743513 L52.3039826,86.7190044 C51.5392017,85.9220201 51.5653078,84.6559593 52.3622921,83.8911784 C52.3779666,83.8761373 52.3938851,83.8613526 52.4100412,83.8468301 Z" id="Rectangle--10" fill="#004052" transform="translate(76.010870, 98.566795) rotate(1.000000) translate(-76.010870, -98.566795) "></path>
                    <path d="M116.243218,60.8380716 C116.242414,59.7114875 115.327777,58.7965302 114.199526,58.7957249 L63.9069705,58.7598282 C62.7753713,58.759021 61.8637127,59.6710033 61.8645068,60.7842155 C61.8645068,60.8310172 61.8662481,60.8778201 61.8713034,60.9246254 C62.5580485,70.8938755 68.1884227,111.934619 114.201511,113.167589 C115.339827,113.198489 116.279928,112.264797 116.279113,111.12317 L116.243218,60.8380716 Z" id="Fill-1" fill="#192F2B" opacity="0.5" transform="translate(89.071810, 85.964082) rotate(-223.000000) translate(-89.071810, -85.964082) "></path>
                    <ellipse id="Oval" fill="#00D5B5" cx="99.174857" cy="1.75280899" rx="1.75531915" ry="1.75280899"></ellipse>
                    <ellipse id="Oval--3" fill="#00D5B5" cx="99.174857" cy="22.7865169" rx="1.75531915" ry="1.75280899"></ellipse>
                    <ellipse id="Oval-" fill="#00D5B5" cx="127.259963" cy="1.75280899" rx="1.75531915" ry="1.75280899"></ellipse>
                    <ellipse id="Oval--4" fill="#00D5B5" cx="127.259963" cy="22.7865169" rx="1.75531915" ry="1.75280899"></ellipse>
                    <ellipse id="Oval--2" fill="#00D5B5" cx="155.34507" cy="2.62921348" rx="1.75531915" ry="1.75280899"></ellipse>
                    <ellipse id="Oval--5" fill="#00D5B5" cx="155.34507" cy="22.7865169" rx="1.75531915" ry="1.75280899"></ellipse>
                    <ellipse id="Oval--3" fill="#003B4B" cx="99.174857" cy="45.5730337" rx="1.75531915" ry="1.75280899"></ellipse>
                    <ellipse id="Oval--4" fill="#00D5B5" cx="127.259963" cy="45.5730337" rx="1.75531915" ry="1.75280899"></ellipse>
                    <ellipse id="Oval--5" fill="#00D5B5" cx="155.34507" cy="45.5730337" rx="1.75531915" ry="1.75280899"></ellipse>
                </g>
            </g>
        </g>
    </g>
</svg>