<svg xmlns="http://www.w3.org/2000/svg" width="38" height="32" viewBox="0 0 38 32"><g><g><path fill="#00d1b6" d="M34.667 16.167C34.667 24.91 27.577 32 18.833 32c-5.907 0-11.058-3.235-13.78-8.03L3.346 25.68c-.6.6-1.546.647-2.2.138l-.157-.138c-.6-.601-.647-1.547-.138-2.2l.138-.157 2.66-2.66A15.837 15.837 0 0 1 3 16.167C3 7.422 10.089.333 18.833.333c5.226 0 9.86 2.532 12.744 6.435l2.774-2.642a1.667 1.667 0 0 1 2.44 2.26l-.142.154-3.346 3.188a15.778 15.778 0 0 1 1.364 6.439zm-15.834 12.5c6.904 0 12.5-5.597 12.5-12.5 0-1.383-.224-2.713-.638-3.956L19.149 23.207a1.667 1.667 0 0 1-2.173.108l-.155-.136-5.488-5.487L7.525 21.5c2.001 4.236 6.312 7.167 11.308 7.167zm-12.5-12.5c0 .575.04 1.14.114 1.695l3.708-3.707c.6-.601 1.546-.647 2.2-.139l.157.139 5.516 5.515 11.11-10.58a12.486 12.486 0 0 0-10.305-5.423c-6.903 0-12.5 5.596-12.5 12.5z"/></g></g></svg>