<svg xmlns="http://www.w3.org/2000/svg" width="31" height="31" viewBox="0 0 31 31"><g><g><path fill="#00d1b6" d="M19.875 23.52a3.646 3.646 0 1 0 7.292 0 3.646 3.646 0 0 0-7.292 0zm0-16.04a3.646 3.646 0 1 0 7.292 0 3.646 3.646 0 0 0-7.292 0zM3.833 23.52a3.646 3.646 0 1 0 7.292 0 3.646 3.646 0 0 0-7.292 0zM14.042 7.48a6.532 6.532 0 0 1-1.007 3.493l2.465 2.465 2.465-2.465a6.562 6.562 0 1 1 2.062 2.062L17.562 15.5l2.465 2.465a6.562 6.562 0 1 1-2.062 2.062L15.5 17.562l-2.465 2.465a6.562 6.562 0 1 1-2.062-2.062l2.465-2.465-2.465-2.465a6.562 6.562 0 1 1 3.069-5.556zm-10.209 0a3.646 3.646 0 1 0 7.292 0 3.646 3.646 0 0 0-7.292 0z"/></g></g></svg>