<svg xmlns="http://www.w3.org/2000/svg" width="28" height="41" viewBox="0 0 28 41"><g><g><path fill="#00d1b6" d="M13.667 33.2v-.9a8.334 8.334 0 0 1-3.284-1.167c-.35-.216-.566-.55-.566-1 0-.65.5-1.133 1.15-1.133.216 0 .45.083.65.217.7.45 1.366.766 2.133.933V27.5c-2.4-.65-3.583-1.567-3.583-3.55 0-1.833 1.4-3.067 3.5-3.283v-.2a.86.86 0 0 1 .866-.867.86.86 0 0 1 .867.867v.233c.9.133 1.7.4 2.417.8.316.183.6.5.6 1 0 .633-.5 1.117-1.134 1.117-.2 0-.4-.05-.583-.15a6.378 6.378 0 0 0-1.383-.567v2.533c2.533.684 3.616 1.717 3.616 3.584 0 1.866-1.433 3.066-3.533 3.3v.883a.86.86 0 0 1-.867.867.86.86 0 0 1-.866-.867zm.083-10.45c-.8.117-1.15.517-1.15 1.05 0 .517.233.867 1.15 1.2zm2.75 6.4c0-.55-.283-.917-1.183-1.233v2.316c.783-.116 1.183-.483 1.183-1.083zM14 .667c.855 0 1.56.643 1.655 1.472l.012.194v5a1.667 1.667 0 0 1-3.322.195l-.012-.195v-5c0-.92.747-1.666 1.667-1.666zM5.667 4c.854 0 1.559.643 1.655 1.472l.011.195v6.666a1.667 1.667 0 0 1-3.322.195L4 12.333V5.667C4 4.747 4.746 4 5.667 4zm21.666 23.333c0 7.364-5.97 13.334-13.333 13.334-7.364 0-13.333-5.97-13.333-13.334C.667 19.97 6.637 14 14 14c2.429 0 4.706.65 6.667 1.784V9a1.667 1.667 0 0 1 3.322-.194L24 9v9.167c0 .107-.01.212-.03.314a13.283 13.283 0 0 1 3.363 8.852zM4 27.333c0 5.523 4.477 10 10 10s10-4.477 10-10-4.477-10-10-10-10 4.477-10 10z"/></g></g></svg>