<svg id="_3._Icons_Normal_Comms_Mail" data-name="3. Icons / Normal / Comms / Mail" xmlns="http://www.w3.org/2000/svg" width="24" height="24" viewBox="0 0 24 24">
  <path id="Colour" d="M1,17a1,1,0,0,1-1-1V1A.994.994,0,0,1,.1.559l0,0L.112.539l0-.008L.123.519.13.507.134.5.143.484l0,0L.157.463l0,0L.171.441h0L.184.421h0Q.212.383.244.346v0L.259.328l0,0L.276.311l0,0L.293.293l0,0L.31.277.316.271.328.26A1,1,0,0,1,.588.089h0L.609.079l0,0L.63.071l.008,0,.013,0,.011,0,.011,0,.012,0,.009,0,.014,0,.007,0,.016,0h0l.018,0h0Q.8.02.837.013H.844l.013,0,.011,0H.88l.014,0H21.107l.015,0h.008l.019,0h0A1,1,0,0,1,22,1.034V16a1,1,0,0,1-1,1Zm1-2H20V3.587l-8.26,9.086a1,1,0,0,1-1.391.086l-.089-.086L2,3.587Zm9-4.486,2.95-3.245a5.184,5.184,0,0,0-5.842.064ZM6.75,5.84a7.2,7.2,0,0,1,8.557-.064L18.74,2H3.26Z" transform="translate(1 4)" fill="#001f26"/>
</svg>
