<?xml version="1.0" encoding="UTF-8"?>
<svg width="24px" height="34px" viewBox="0 0 24 34" version="1.1" xmlns="http://www.w3.org/2000/svg" xmlns:xlink="http://www.w3.org/1999/xlink">
    <title>Icons/Info/phone Copy 6</title>
    <defs>
        <filter color-interpolation-filters="auto" id="filter-1">
            <feColorMatrix in="SourceGraphic" type="matrix" values="0 0 0 0 0.000000 0 0 0 0 0.819608 0 0 0 0 0.713725 0 0 0 1.000000 0"></feColorMatrix>
        </filter>
    </defs>
    <g id="Page-1" stroke="none" stroke-width="1" fill="none" fill-rule="evenodd">
        <g id="1.4.1b-—-Business-Premium-Current-Account-" transform="translate(-477.000000, -1618.000000)">
            <g id="Icons/Info/phone-Copy-6" transform="translate(0.000000, 728.000000)" filter="url(#filter-1)">
                <g transform="translate(477.333333, 890.333333)" id="Group" fill="#003D4C">
                    <path d="M20.3333333,0 C21.9901876,1.39730022e-16 23.3333333,1.34314575 23.3333333,3 L23.3333333,30.3333333 C23.3333333,31.9901876 21.9901876,33.3333333 20.3333333,33.3333333 L3,33.3333333 C1.34314575,33.3333333 -1.1293615e-15,31.9901876 0,30.3333333 L0,3 C-2.02906125e-16,1.34314575 1.34314575,7.48448398e-16 3,0 L20.3333333,0 Z M19.75,6.66666667 L3.58333333,6.66666667 C3.44526215,6.66666667 3.33333333,6.77859548 3.33333333,6.91666667 L3.33333333,6.91666667 L3.33333333,28 C3.33333333,29.1045695 4.22876383,30 5.33333333,30 L5.33333333,30 L18,30 C19.1045695,30 20,29.1045695 20,28 L20,28 L20,6.91666667 C20,6.77859548 19.8880712,6.66666667 19.75,6.66666667 L19.75,6.66666667 Z" id="Combined-Shape"></path>
                    <path d="M10.4917018,25.4846545 C10.0129967,25.9605339 9.86858837,26.6781732 10.1259665,27.3021812 C10.3833446,27.9261893 10.9916806,28.3333333 11.6666667,28.3333333 C12.3416528,28.3333333 12.9499888,27.9261893 13.2073669,27.3021812 C13.464745,26.6781732 13.3203366,25.9605339 12.8416315,25.4846545 C12.1915886,24.8384485 11.1417448,24.8384485 10.4917018,25.4846545 Z" id="Path" fill-rule="nonzero"></path>
                </g>
            </g>
        </g>
    </g>
</svg>