<svg xmlns="http://www.w3.org/2000/svg" width="56" height="56.001" viewBox="0 0 56 56.001">
  <path id="Colour" d="M38,56H18a2,2,0,0,1,2-2h3V52H33v2h3a2,2,0,0,1,2,2h0ZM18,49a3,3,0,0,1-3-3V10a3,3,0,0,1,3-3H38a3,3,0,0,1,3,3V42h0v4a3,3,0,0,1-3,3Zm0-38V45a1,1,0,0,0,1,1H37a1,1,0,0,0,1-1V11a1,1,0,0,0-1-1H34a1,1,0,0,1-1,1H23a1,1,0,0,1-1-1H19A1,1,0,0,0,18,11Zm8,32a2,2,0,1,1,2,2A2,2,0,0,1,26,43ZM9,42H2a2,2,0,0,1-2-2V2A2,2,0,0,1,2,0H54a2,2,0,0,1,2,2V40a2,2,0,0,1-2,2H47V40h6a1,1,0,0,0,1-1V3a1,1,0,0,0-1-1H3A1,1,0,0,0,2,3V39a1,1,0,0,0,1,1H9v2H9Z" fill="#fff"/>
</svg>
