<svg id="_4._Illustrations_2._Iconography_Time" data-name="4. Illustrations / 2. Iconography / Time" xmlns="http://www.w3.org/2000/svg" width="58" height="58.001" viewBox="0 0 58 58.001">
  <path id="Colour" d="M28.8,58A28.992,28.992,0,0,1,8.494,8.494a28.977,28.977,0,0,1,41.012,0,1.036,1.036,0,0,1-1.464,1.465,26.929,26.929,0,1,0-.309,38.386H45.845l-.13-.008a1.036,1.036,0,0,1,.13-2.064h4.4a.819.819,0,0,1,.117.006l.012,0a1.02,1.02,0,0,1,.566.26l.009.008.008.008.019.019.017.017L51,46.6l.007.008.009.01.008.008a1.04,1.04,0,0,1,.244.549,1.011,1.011,0,0,1,.007.131V51.7a1.035,1.035,0,0,1-2.063.131L49.2,51.7V49.8A28.819,28.819,0,0,1,29,58Zm19.239-9.958c-.1.1-.205.2-.309.3H49.2V49.8c.1-.1.2-.2.3-.3a1.035,1.035,0,0,0-1.464-1.464ZM15.085,42.915A19.68,19.68,0,1,1,29,48.678,19.552,19.552,0,0,1,15.085,42.915ZM12.428,29A16.572,16.572,0,1,0,29,12.428,16.59,16.59,0,0,0,12.428,29ZM27.446,42.982A1.554,1.554,0,1,1,29,44.536,1.555,1.555,0,0,1,27.446,42.982ZM34.8,35.94l-.122-.1-6.732-6.214a1.553,1.553,0,0,1-.488-1.33c0-.014,0-.027,0-.042l-.007-.162V15.151a1.553,1.553,0,1,1,3.1-.162l.007.162V27.8l6.232,5.753A1.554,1.554,0,0,1,34.8,35.94ZM41.428,29a1.554,1.554,0,1,1,1.554,1.554A1.555,1.555,0,0,1,41.428,29ZM13.464,29a1.554,1.554,0,1,1,1.554,1.554A1.555,1.555,0,0,1,13.464,29Z" transform="translate(0 0)" fill="#fff"/>
</svg>