<svg xmlns="http://www.w3.org/2000/svg" width="56" height="56" viewBox="0 0 56 56">
  <g id="_4._Illustrations_2._Iconography_Comunication" data-name="4. Illustrations / 2. Iconography / Comunication" transform="translate(0 0)">
    <path id="Colour" d="M8.2,47.8a28,28,0,0,1,0-39.6A1,1,0,0,1,9.616,9.616a26,26,0,0,0,36.77,36.77A1,1,0,0,1,47.8,47.8a28,28,0,0,1-39.6,0Zm14.162-2.14-.019.019L10.323,33.656l.007-.007a10.974,10.974,0,0,1,.347-15.158l.372-.372a1.5,1.5,0,0,1,2.121,0l6.7,6.7a1.5,1.5,0,0,1,0,2.122l-6.01,6.009,9.005,9.006,6.01-6.01a1.5,1.5,0,0,1,2.122,0l6.7,6.7a1.5,1.5,0,0,1,0,2.121l-.372.372a10.9,10.9,0,0,1-7.61,3.211h-.149A10.929,10.929,0,0,1,22.362,45.659Zm2.723-1.682.152.1a7.971,7.971,0,0,0,9.233-.416l-4.536-4.536ZM11.726,30.564l.111.164,4.85-4.849L12.15,21.343A7.98,7.98,0,0,0,11.726,30.564Zm31.063.366a1.5,1.5,0,0,1-1.35-1.635A13.5,13.5,0,0,0,26.6,14.573a1.5,1.5,0,0,1-.31-2.984A16.5,16.5,0,0,1,44.425,29.58a1.5,1.5,0,0,1-1.49,1.357Q42.862,30.937,42.789,30.93Zm-7.16-.089a1.5,1.5,0,0,1-1.224-1.733,6.5,6.5,0,0,0-7.729-7.473,1.5,1.5,0,0,1-.608-2.938,9.5,9.5,0,0,1,11.294,10.92,1.5,1.5,0,0,1-1.733,1.224ZM54.9,30.562a1,1,0,0,1-.94-1.056A25.921,25.921,0,0,0,46.719,9.956l-.328-.335-.313-.308A25.929,25.929,0,0,0,26.625,2.036a1,1,0,1,1-.105-2A27.933,27.933,0,0,1,47.126,7.55l.349.332L47.8,8.2a27.924,27.924,0,0,1,8.154,21.419,1,1,0,0,1-1,.943Z" transform="translate(0 0)" fill="#fff"/>
  </g>
</svg>