<svg xmlns="http://www.w3.org/2000/svg" width="56.033" height="56" viewBox="0 0 56.033 56">
  <g id="_4._Illustrations_2._Iconography_Relationship" data-name="4. Illustrations / 2. Iconography / Relationship" transform="translate(0.033 0)">
    <path id="Colour" d="M4.087,42.521A1,1,0,1,1,5.8,41.482a26.01,26.01,0,0,0,45.988-2.889,1,1,0,0,1,1.826.816A28.011,28.011,0,0,1,4.087,42.521Zm17.528,2.132-.153-.147-2.119-2.119L11.415,34.5H1.533A1.5,1.5,0,0,1,.041,33.153L.032,33A1.5,1.5,0,0,1,1.38,31.508l.153-.008h10.5a1.5,1.5,0,0,1,.948.338l.11.1,8.371,8.327,2.121,2.121A1.5,1.5,0,0,0,25.8,40.37l-.1-.107-2.121-2.121A1.5,1.5,0,0,1,25.6,35.924l.107.1,4.243,4.243a1.5,1.5,0,0,0,2.219-2.014l-.1-.107L27.825,33.9a1.5,1.5,0,0,1,2.014-2.219l.107.1,7.071,7.071a1.5,1.5,0,0,0,2.218-2.014l-.1-.107-7.071-7.071a1.5,1.5,0,0,1,2.014-2.219l.107.1,9.193,9.193A1.5,1.5,0,0,0,45.6,34.714l-.1-.107L36.03,25.133h-11.5l-2.389,2.389a4.5,4.5,0,0,1-6.211.147l-.153-.147a4.42,4.42,0,0,1-.148-6.1l.179-.186,3.435-3.253H1.5A1.5,1.5,0,0,1,.008,16.64L0,16.486a1.5,1.5,0,0,1,1.346-1.492l.154-.007h53a1.5,1.5,0,0,1,.127,3l-.127,0H23.6l-5.7,5.4a1.419,1.419,0,0,0,0,2.009,1.5,1.5,0,0,0,2.014.1l.107-.1,2.828-2.829a1.506,1.506,0,0,1,.913-.432l.149-.007H36.632a1.6,1.6,0,0,1,.986.355l.107.1,7.785,7.786,1.472-1.443a1.5,1.5,0,0,1,.9-.421l.147-.007h6.5a1.5,1.5,0,0,1,.153,2.992l-.153.008H48.645l-1.014.993a4.5,4.5,0,0,1-5.421,7.083,4.5,4.5,0,0,1-7.138,1.561,4.506,4.506,0,0,1-6.3,1.974,4.5,4.5,0,0,1-7.16,1.542ZM45.5,8.741a26,26,0,0,0-34.934,0A1,1,0,1,1,9.222,7.259a28,28,0,0,1,37.621,0A1,1,0,0,1,45.5,8.741Z" transform="translate(-0.033)" fill="#fff"/>
  </g>
</svg>