<?xml version="1.0" encoding="UTF-8"?>
<svg width="22px" height="31px" viewBox="0 0 22 31" version="1.1" xmlns="http://www.w3.org/2000/svg" xmlns:xlink="http://www.w3.org/1999/xlink">
    <title>3. Icons / Normal / Activities / Business</title>
    <g id="New-Design" stroke="none" stroke-width="1" fill="none" fill-rule="evenodd">
        <g id="01A-Document-Library" transform="translate(-649.000000, -1154.000000)">
            <g id="3.-Icons-/-Normal-/-Activities-/-Business" transform="translate(647.000000, 1152.000000)">
                <path d="M17.5430108,2.125 L17.5426667,2.127 L17.6438327,2.12897476 C21.0826657,2.24788464 23.8333333,5.01978477 23.8333333,8.4212963 L23.8276667,8.499 L23.8333333,8.5 L23.8333333,31.3340177 L23.8252351,31.4774924 C23.7557031,32.0893499 23.246932,32.5642809 22.6296296,32.5642809 L22.6296296,32.5642809 L3.37037037,32.5642809 L3.22999309,32.556004 C2.63134467,32.4849377 2.16666667,31.9649408 2.16666667,31.3340177 L2.16666667,31.3340177 L2.16666667,3.35526316 L2.17476486,3.21178848 C2.24429694,2.59993102 2.75306797,2.125 3.37037037,2.125 L3.37037037,2.125 L17.5430108,2.125 Z M16.6106667,3.541 L3.56451613,3.54166667 L3.56451613,31.1476142 L22.3888889,31.1666667 L22.3886667,9.208 L17.4135802,9.20833333 C16.9703888,9.20833333 16.6111111,8.85596485 16.6111111,8.4212963 L16.6106667,3.541 Z M19.9444444,21.25 C20.4967292,21.25 20.9444444,21.6977153 20.9444444,22.25 L20.9444444,28.0416667 C20.9444444,28.5939514 20.4967292,29.0416667 19.9444444,29.0416667 L6.77777778,29.0416667 C6.22549303,29.0416667 5.77777778,28.5939514 5.77777778,28.0416667 L5.77777778,22.25 C5.77777778,21.6977153 6.22549303,21.25 6.77777778,21.25 L19.9444444,21.25 Z" id="File" fill="#D34343"></path>
                <path d="M8.20733333,26.9506667 C8.45577778,26.9506667 8.65222222,26.758 8.65222222,26.5143333 L8.65222222,25.7266667 L9.32822222,25.7266667 C10.2353333,25.7266667 10.9633333,25.2506667 10.9633333,24.3326667 L10.9633333,24.3213333 C10.9633333,23.511 10.3797778,22.95 9.41488889,22.95 L8.20733333,22.95 C7.95888889,22.95 7.76244444,23.1426667 7.76244444,23.3863333 L7.76244444,26.5143333 C7.76244444,26.758 7.95888889,26.9506667 8.20733333,26.9506667 Z M9.35711111,24.9503333 L8.65222222,24.9503333 L8.65222222,23.7376667 L9.33977778,23.7376667 C9.78466667,23.7376667 10.062,23.9473333 10.062,24.3383333 L10.062,24.3496667 C10.062,24.6896667 9.802,24.9503333 9.35711111,24.9503333 Z M13.1993333,26.9166667 C14.4704444,26.9166667 15.3486667,26.0496667 15.3486667,24.9333333 L15.3486667,24.922 C15.3486667,23.8056667 14.4704444,22.95 13.1993333,22.95 L12.0668889,22.95 C11.8184444,22.95 11.622,23.1426667 11.622,23.3863333 L11.622,26.4803333 C11.622,26.724 11.8184444,26.9166667 12.0668889,26.9166667 L13.1993333,26.9166667 Z M13.1993333,26.129 L12.5117778,26.129 L12.5117778,23.7376667 L13.1993333,23.7376667 C13.9273333,23.7376667 14.4184444,24.2306667 14.4184444,24.9333333 L14.4184444,24.9446667 C14.4184444,25.6473333 13.9273333,26.129 13.1993333,26.129 Z M16.5851111,26.9506667 C16.8335556,26.9506667 17.03,26.758 17.03,26.5143333 L17.03,25.381 L18.59,25.381 C18.8153333,25.381 18.9944444,25.2053333 18.9944444,24.9843333 C18.9944444,24.7633333 18.8153333,24.5876667 18.59,24.5876667 L17.03,24.5876667 L17.03,23.7433333 L18.85,23.7433333 C19.0753333,23.7433333 19.2544444,23.5676667 19.2544444,23.3466667 C19.2544444,23.1256667 19.0753333,22.95 18.85,22.95 L16.5851111,22.95 C16.3366667,22.95 16.1402222,23.1426667 16.1402222,23.3863333 L16.1402222,26.5143333 C16.1402222,26.758 16.3366667,26.9506667 16.5851111,26.9506667 Z" id="PDF" fill="#FFFFFF" fill-rule="nonzero"></path>
            </g>
        </g>
    </g>
</svg>