<?xml version="1.0" encoding="UTF-8"?>
<svg width="44px" height="44px" viewBox="0 0 44 44" version="1.1" xmlns="http://www.w3.org/2000/svg" xmlns:xlink="http://www.w3.org/1999/xlink">
    <title>Image Mask</title>
    <g id="Page-1" stroke="none" stroke-width="1" fill="none" fill-rule="evenodd">
        <g id="4.1-—-About" transform="translate(-411.000000, -3192.000000)">
            <g id="Section-/-Product-Placement-/-Left-Image" transform="translate(1.000000, 2939.000000)">
                <g id="Group" transform="translate(162.000000, 72.000000)">
                    <g id="Image" transform="translate(0.000000, 0.000000)">
                        <g id="Icons-/-Stroke-/-Media-/-Play" transform="translate(246.000000, 179.000000)">
                            <path d="M17.4545455,13.9994751 L17.4545455,34.0133878 C17.4545455,34.2895301 17.6784031,34.5133878 17.9545455,34.5133878 C18.0472241,34.5133878 18.138079,34.487629 18.216967,34.4389873 L34.2280971,24.5666396 C34.4631492,24.4217082 34.5362065,24.1136707 34.391275,23.8786186 C34.3514221,23.8139844 34.2973714,23.7592762 34.2332239,23.7186447 L18.2220938,13.5770797 C17.9888112,13.4293169 17.6799129,13.4986443 17.53215,13.7319268 C17.4814583,13.811957 17.4545455,13.9047414 17.4545455,13.9994751 Z" id="Colour" fill="#FFFFFF"></path>
                            <path d="M24,2.18181818 C11.9501509,2.18181818 2.18181818,11.9501509 2.18181818,24 C2.18181818,36.0498491 11.9501509,45.8181818 24,45.8181818 C36.0498491,45.8181818 45.8181818,36.0498491 45.8181818,24 C45.8181818,11.9501509 36.0498491,2.18181818 24,2.18181818 Z M24,6.54545455 C33.6398793,6.54545455 41.4545455,14.3601207 41.4545455,24 C41.4545455,33.6398793 33.6398793,41.4545455 24,41.4545455 C14.3601207,41.4545455 6.54545455,33.6398793 6.54545455,24 C6.54545455,14.3601207 14.3601207,6.54545455 24,6.54545455 Z" id="Colour" fill="#003D4C"></path>
                        </g>
                    </g>
                </g>
            </g>
        </g>
    </g>
</svg>