<svg id="_3._Icons_Normal_Info_Protect" data-name="3. Icons / Normal / Info / Protect" xmlns="http://www.w3.org/2000/svg" width="34" height="34" viewBox="0 0 34 34">
  <path id="Colour" d="M13.076,31.087a40.6,40.6,0,0,1-6.429-3.675A22.114,22.114,0,0,1,2.156,23.35,8.57,8.57,0,0,1,0,18.029V4.581a.911.911,0,0,1,.667-.875L13.19.038a.961.961,0,0,1,.537,0L26.25,3.706a.911.911,0,0,1,.667.875V18.029A8.57,8.57,0,0,1,24.76,23.35a22.114,22.114,0,0,1-4.492,4.062,40.478,40.478,0,0,1-6.429,3.675.962.962,0,0,1-.764,0ZM8.5,25.5a27.51,27.51,0,0,0,4.687,2.707c.1.046.189.087.272.126l.185-.087.091-.042a27.449,27.449,0,0,0,4.682-2.7l.106-.075c1.794-1.269,3.753-2.654,4.8-4.391-6.737-3.487-13.216-3.507-19.594-.074A17.157,17.157,0,0,0,8.5,25.5Zm15.583-7.256V5.666L13.459,2.833,2.833,5.666V18.029q0,.1,0,.2A22.693,22.693,0,0,1,13.32,15.568,24.188,24.188,0,0,1,24.083,18.244Z" transform="translate(2.833 1.417)" fill="#00d1b6"/>
</svg>
