<?xml version="1.0" encoding="UTF-8"?>
<svg width="34px" height="34px" viewBox="0 0 34 34" version="1.1" xmlns="http://www.w3.org/2000/svg" xmlns:xlink="http://www.w3.org/1999/xlink">
    <title>3. Icons / Normal / Action / Search</title>
    <g id="Symbols" stroke="none" stroke-width="1" fill="none" fill-rule="evenodd">
        <g id="6.-Forms-Fields/7.-Search/2.-Oulined/B.-Large/B.-Dark/Active" transform="translate(-25.000000, -27.000000)" fill="#FFFFFF">
            <g id="Group" transform="translate(24.000000, 24.000000)">
                <g id="3.-Icons-/-Normal-/-Action-/-Search" transform="translate(19.000000, 19.000000) rotate(-360.000000) translate(-19.000000, -19.000000) ">
                    <path d="M22.1666667,3.16666667 C29.1622735,3.16666667 34.8333333,8.8377265 34.8333333,15.8333333 C34.8333333,22.8289402 29.1622735,28.5 22.1666667,28.5 C19.2396917,28.5 16.544592,27.5072235 14.3997302,25.8400331 L4.2862524,35.9529191 C3.66792227,36.5712492 2.66541106,36.5712492 2.04708093,35.9529191 C1.47631466,35.3821528 1.43240956,34.484037 1.91536564,33.8629092 L2.04708093,33.7137476 L12.1599669,23.6002698 C10.4927765,21.455408 9.5,18.7603083 9.5,15.8333333 C9.5,8.8377265 15.1710598,3.16666667 22.1666667,3.16666667 Z M12.6666667,15.8333333 C12.6666667,21.0800385 16.9199615,25.3333333 22.1666667,25.3333333 C26.8740884,25.3333333 30.7818204,21.9094544 31.5354011,17.416158 L22.1666667,17.4166667 C21.3546766,17.4166667 20.685447,16.8054364 20.5939856,16.0179834 L20.5833333,15.8333333 L20.583842,6.46459887 C16.0905456,7.21817957 12.6666667,11.1259116 12.6666667,15.8333333 Z M23.7494913,6.46459887 L23.75,14.25 L31.5354011,14.2505087 C30.8681508,10.2719654 27.7280346,7.13184919 23.7494913,6.46459887 Z" id="Colour"></path>
                </g>
            </g>
        </g>
    </g>
</svg>