<svg width="34" height="34" viewBox="0 0 34 34" fill="none" xmlns="http://www.w3.org/2000/svg">
  <path d="M30.8438 32.5099L30.6487 32.4986C30.2433 32.4507 29.8695 32.2557 29.5983 31.9506C29.3271 31.6455 29.1772 31.2515 29.1772 30.8433L29.1737 28.1372C29.0089 28.3175 28.8399 28.4949 28.666 28.6689C26.2764 31.0575 23.2174 32.6634 19.8944 33.274C16.5713 33.8845 13.1412 33.4707 10.0587 32.0876C6.97616 30.7044 4.38675 28.4171 2.63368 25.5288C0.880615 22.6406 0.0466707 19.2878 0.242387 15.9148C0.255248 15.6963 0.311028 15.4824 0.406542 15.2854C0.502057 15.0884 0.635435 14.9122 0.799063 14.7667C0.96269 14.6213 1.15336 14.5095 1.36019 14.4378C1.56702 14.366 1.78595 14.3357 2.0045 14.3486C2.22304 14.3614 2.43691 14.4172 2.63389 14.5127C2.83088 14.6082 3.00712 14.7416 3.15256 14.9052C3.298 15.0689 3.40979 15.2595 3.48154 15.4664C3.55329 15.6732 3.5836 15.8921 3.57074 16.1107C3.4139 18.8091 4.08093 21.4915 5.48338 23.8022C6.88583 26.1128 8.95746 27.9427 11.4236 29.0491C13.8898 30.1555 16.634 30.4863 19.2924 29.9975C21.9508 29.5087 24.3979 28.2234 26.3092 26.3121C26.4619 26.1594 26.6104 26.0024 26.7554 25.8447L24.1758 25.8447L23.9807 25.8334C23.5593 25.7826 23.1732 25.5729 22.9011 25.2472C22.629 24.9215 22.4914 24.5043 22.5162 24.0806C22.5411 23.657 22.7267 23.2587 23.0351 22.9672C23.3434 22.6756 23.7514 22.5126 24.1758 22.5114L30.8424 22.5086L31.0369 22.5206C31.4427 22.5682 31.817 22.7632 32.0886 23.0684C32.3602 23.3737 32.5104 23.768 32.5105 24.1766L32.5091 30.8433L32.4971 31.0363C32.4484 31.4414 32.2531 31.8147 31.9479 32.0857C31.6428 32.3567 31.2491 32.5066 30.841 32.5071L30.8438 32.5099ZM31.7829 19.4369C31.3418 19.4114 30.9289 19.2117 30.6351 18.8818C30.3412 18.5518 30.1905 18.1187 30.2159 17.6776C30.3729 14.979 29.7059 12.2964 28.3034 9.98552C26.9009 7.67463 24.8291 5.84458 22.3628 4.738C19.8965 3.63142 17.1521 3.30059 14.4935 3.78935C11.8349 4.27812 9.38758 5.56339 7.47609 7.47479C7.31628 7.63459 7.16213 7.79723 7.01011 7.9634L9.62994 7.96411C10.0382 7.96395 10.4323 8.11361 10.7375 8.3847C11.0428 8.6558 11.2379 9.02948 11.286 9.43489L11.2959 9.63005C11.2958 10.0383 11.146 10.4323 10.8748 10.7374C10.6036 11.0425 10.2298 11.2375 9.82439 11.2854L9.62923 11.2967H2.96263C2.55447 11.2963 2.16064 11.1462 1.85571 10.8749C1.55078 10.6035 1.35591 10.2298 1.308 9.8245L1.29598 9.63005L1.29668 2.96274C1.2951 2.53636 1.45697 2.12557 1.74899 1.81488C2.04101 1.50419 2.44099 1.31721 2.86665 1.29239C3.29232 1.26758 3.71131 1.40682 4.03746 1.68147C4.3636 1.95612 4.57211 2.34531 4.62009 2.76899L4.62998 2.96416L4.62928 5.62924C4.78838 5.456 4.95172 5.28559 5.1193 5.118C7.5085 2.72913 10.5673 1.12278 13.8902 0.511879C17.2131 -0.0990191 20.6433 0.314388 23.7259 1.6973C26.8085 3.08021 29.398 5.36732 31.1512 8.25544C32.9044 11.1436 33.7385 14.4963 33.5429 17.8693C33.5168 18.3104 33.3168 18.7232 32.9867 19.017C32.6566 19.3108 32.2241 19.4622 31.7829 19.4369Z" fill="#00D1B6"/>
</svg>