<svg id="Group_8" data-name="Group 8" xmlns="http://www.w3.org/2000/svg" xmlns:xlink="http://www.w3.org/1999/xlink" width="38" height="53" viewBox="0 0 38 53">
  <defs>
    <clipPath id="clip-path">
      <path id="Clip_2" data-name="Clip 2" d="M0,0H38V53H0Z" fill="none"/>
    </clipPath>
  </defs>
  <g id="Group_3" data-name="Group 3">
    <path id="Clip_2-2" data-name="Clip 2" d="M0,0H38V53H0Z" fill="none"/>
    <g id="Group_3-2" data-name="Group 3" clip-path="url(#clip-path)">
      <path id="Fill_1" data-name="Fill 1" d="M35.458,53H2.542A2.479,2.479,0,0,1,0,50.6V2.4A2.478,2.478,0,0,1,2.542,0H35.458A2.478,2.478,0,0,1,38,2.4V50.6A2.479,2.479,0,0,1,35.458,53ZM1.906,43.947V50.6a.628.628,0,0,0,.635.6H35.458a.629.629,0,0,0,.636-.6V43.947ZM2.542,1.8a.628.628,0,0,0-.635.6V42.145H36.095V2.4a.628.628,0,0,0-.636-.6Z" fill="#fff"/>
    </g>
  </g>
  <path id="Fill_4" data-name="Fill 4" d="M1.5,3A1.5,1.5,0,1,0,0,1.5,1.5,1.5,0,0,0,1.5,3" transform="translate(18 46)" fill="#fff"/>
  <path id="Fill_6" data-name="Fill 6" d="M5.142,0H.953A.928.928,0,0,0,0,.9a.927.927,0,0,0,.953.9H5.142A.927.927,0,0,0,6.1.9.928.928,0,0,0,5.142,0" transform="translate(16.31 3.727)" fill="#fff"/>
</svg>
