<svg id="Group_15" data-name="Group 15" xmlns="http://www.w3.org/2000/svg" xmlns:xlink="http://www.w3.org/1999/xlink" width="58" height="58" viewBox="0 0 58 58">
  <defs>
    <clipPath id="clip-path">
      <path id="Clip_6" data-name="Clip 6" d="M0,0H11.343V36.927H0Z" fill="none"/>
    </clipPath>
    <clipPath id="clip-path-2">
      <path id="Clip_13" data-name="Clip 13" d="M0,0H44.027V45.125H0Z" fill="none"/>
    </clipPath>
  </defs>
  <path id="Fill_1" data-name="Fill 1" d="M.762.429A.918.918,0,0,0,.918,2.252a.788.788,0,0,0,.158-.015,27.433,27.433,0,0,1,4.686-.4A.918.918,0,0,0,5.762,0a29.262,29.262,0,0,0-5,.429" transform="translate(23.237)" fill="#fff"/>
  <path id="Fill_3" data-name="Fill 3" d="M.918,9.572A.914.914,0,0,0,1.6,9.264a27.289,27.289,0,0,1,10.99-7.481.919.919,0,0,0-.63-1.727A29.128,29.128,0,0,0,.232,8.043.918.918,0,0,0,.918,9.572" transform="translate(7.088 1.694)" fill="#fff"/>
  <g id="Group_7" data-name="Group 7" transform="translate(0 14.052)">
    <path id="Clip_6-2" data-name="Clip 6" d="M0,0H11.343V36.927H0Z" fill="none"/>
    <g id="Group_7-2" data-name="Group 7" clip-path="url(#clip-path)">
      <path id="Fill_5" data-name="Fill 5" d="M1.837,14.947A27.164,27.164,0,0,1,5.463,1.378.918.918,0,1,0,3.873.459,29.014,29.014,0,0,0,9.817,36.7a.919.919,0,1,0,1.216-1.378,27.186,27.186,0,0,1-9.2-20.372" transform="translate(0)" fill="#fff"/>
    </g>
  </g>
  <path id="Fill_8" data-name="Fill 8" d="M8.4,14.7a3.075,3.075,0,0,1-3.072-3.072,3.023,3.023,0,0,1,.077-.675.9.9,0,0,1-.13-.107l-5-5.006a.916.916,0,0,1,0-1.3l.447-.447A.918.918,0,0,1,2,4.082L7.009,8.894a3.03,3.03,0,0,1,2.746-.017L18.364.269a.916.916,0,0,1,1.3,0,.92.92,0,0,1,0,1.3l-8.575,8.576A3.069,3.069,0,0,1,8.4,14.7Zm0-4.306a1.235,1.235,0,1,0,1.236,1.234A1.236,1.236,0,0,0,8.4,10.394Z" transform="translate(20.438 17.547)" fill="#fff"/>
  <path id="Fill_10" data-name="Fill 10" d="M19.435,38.871A19.436,19.436,0,1,1,38.869,19.436,19.457,19.457,0,0,1,19.435,38.871Zm-.158-3.663a.919.919,0,0,1,.918.918v.888A17.618,17.618,0,0,0,37,20.412H35.979a.918.918,0,0,1,0-1.837h1.031A17.618,17.618,0,0,0,20.194,1.858v.635a.918.918,0,1,1-1.836,0V1.874A17.619,17.619,0,0,0,1.974,17.285H2.93a.918.918,0,1,1,0,1.836H1.845l0,.129c0,.063,0,.124,0,.185A17.616,17.616,0,0,0,18.358,37v-.871A.919.919,0,0,1,19.276,35.208Z" transform="translate(9.565 9.564)" fill="#fff"/>
  <g id="Group_14" data-name="Group 14" transform="translate(13.973 12.875)">
    <path id="Clip_13-2" data-name="Clip 13" d="M0,0H44.027V45.125H0Z" fill="none"/>
    <g id="Group_14-2" data-name="Group 14" clip-path="url(#clip-path-2)">
      <path id="Fill_12" data-name="Fill 12" d="M42.909,2.624a.919.919,0,0,0,.3-1.813l-4.753-.8A.92.92,0,0,0,37.4.765l-.785,4.666a.919.919,0,0,0,.754,1.059.94.94,0,0,0,.153.013.918.918,0,0,0,.9-.766l.442-2.627A27.169,27.169,0,0,1,1.38,39.617.919.919,0,0,0,.456,41.2,29,29,0,0,0,40.474,2.213Z" fill="#fff"/>
    </g>
  </g>
</svg>
