<svg xmlns="http://www.w3.org/2000/svg" width="33.333" height="33.334" viewBox="0 0 33.333 33.334">
  <path id="Colour" d="M24.94,33.333h-.048a.113.113,0,0,1-.023,0h-.036l-.012,0-.024,0H24.79l-.085-.014h-.01l-.021,0-.015,0-.02,0-.018,0-.017,0-.021,0-.012,0a.182.182,0,0,1-.027-.007l-.007,0A1.661,1.661,0,0,1,24.006,33a1.54,1.54,0,0,1-.21-.186l-6.642-6.639a1.667,1.667,0,0,1,2.2-2.5l.157.138,3.821,3.819V10a1.667,1.667,0,0,1,3.322-.193l.012.193V27.642l3.82-3.821a1.668,1.668,0,0,1,2.2-.138l.158.138a1.668,1.668,0,0,1,.138,2.2l-.138.158-6.633,6.631A1.668,1.668,0,0,1,25,33.334Zm-18.274-10V5.692L2.845,9.511l-.158.139a1.667,1.667,0,0,1-2.2-2.5L7.155.487,7.162.481A1.56,1.56,0,0,1,7.339.328.164.164,0,0,0,7.365.309h0a1.646,1.646,0,0,1,.54-.254h.006a.175.175,0,0,1,.03-.008H7.95L7.978.037a.019.019,0,0,0,.009,0L8.016.03l.007,0L8.055.022h.006c.024,0,.05-.007.075-.01h0l.035,0h0l.035,0h0l.038,0c.054,0,.108,0,.163,0a.042.042,0,0,0,.014,0l.025,0,.024,0,.015,0,.031,0,.008,0,.035,0h0l.037,0h0a1.415,1.415,0,0,1,.195.045l.036.011h0l.033.01.007,0L8.917.1l.014,0,.023.009a.092.092,0,0,0,.018.007.092.092,0,0,0,.018.008l.023.01L9.024.15l.028.012.006,0L9.09.181h0A1.7,1.7,0,0,1,9.3.307l.03.022.006,0c.008.007.017.014.026.021L9.369.36,9.39.378l.016.014L9.42.4l.027.026h0C9.474.45,9.5.472,9.52.5l6.658,6.659.138.158a1.666,1.666,0,0,1-.138,2.2l-.158.139a1.667,1.667,0,0,1-2.2-.139L10,5.691V23.334l-.012.194a1.667,1.667,0,0,1-3.322-.194Z" fill="#00d1b6"/>
</svg>
