<svg id="_3._Icons_Normal_Finantial_Wallet" data-name="3. Icons / Normal / Finantial / Wallet" xmlns="http://www.w3.org/2000/svg" width="40" height="40" viewBox="0 0 40 40">
  <path id="Combined_Shape" data-name="Combined Shape" d="M5,30a5,5,0,0,1-5-5V5A5,5,0,0,1,5,0H20a5.006,5.006,0,0,1,5,5V6.666l.294.009a4.993,4.993,0,0,1,4.7,4.7l.009.294V25a5,5,0,0,1-5,5ZM3.333,25A1.668,1.668,0,0,0,5,26.667H25A1.668,1.668,0,0,0,26.667,25V22.5H20a1.669,1.669,0,0,1-1.667-1.668v-5A1.67,1.67,0,0,1,20,14.166h6.667v-2.5A1.668,1.668,0,0,0,25,10H5a4.976,4.976,0,0,1-1.666-.286Zm18.333-5.835h5V17.5h-5ZM3.333,5A1.668,1.668,0,0,0,5,6.666H21.666V5q0-.021,0-.041s0-.009,0-.014,0-.018,0-.027V4.9c0-.008,0-.016,0-.024V4.859l0-.024,0-.018,0-.023,0-.017,0-.024,0-.016,0-.024,0-.015,0-.026,0-.014-.006-.028,0-.01-.009-.036v0a1.672,1.672,0,0,0-1-1.134h0l-.021-.008a1.663,1.663,0,0,0-.395-.1L20,3.333H5A1.668,1.668,0,0,0,3.333,5Z" transform="translate(5 5)" fill="#00d1b6"/>
</svg>
