<svg id="_3._Icons_Normal_Info_WiFi" data-name="3. Icons / Normal / Info / WiFi" xmlns="http://www.w3.org/2000/svg" width="26" height="26" viewBox="0 0 26 26">
  <path id="Colour" d="M8.193,13.674a2.166,2.166,0,1,1,2,1.341A2.165,2.165,0,0,1,8.193,13.674ZM5.607,11.4A1.092,1.092,0,0,1,5.2,9.914a5.4,5.4,0,0,1,.9-1.17,5.8,5.8,0,0,1,8.19,0,5.674,5.674,0,0,1,.9,1.182,1.083,1.083,0,0,1-.422,1.473,1.017,1.017,0,0,1-.52.14,1.084,1.084,0,0,1-.954-.553,2.964,2.964,0,0,0-.542-.693,3.619,3.619,0,0,0-5.113,0A2.936,2.936,0,0,0,7.1,11a1.092,1.092,0,0,1-1.49.406Zm10.276-2.9a5.82,5.82,0,0,0-.639-.737,7.152,7.152,0,0,0-10.1,0,5.743,5.743,0,0,0-.639.737A1.084,1.084,0,0,1,2.72,7.3a7.9,7.9,0,0,1,.888-1.083,9.328,9.328,0,0,1,13.174,0A7.968,7.968,0,0,1,17.671,7.3a1.078,1.078,0,1,1-1.788,1.2ZM.446,6.231A1.083,1.083,0,0,1,.219,4.7c.27-.314.552-.64.855-.943a12.839,12.839,0,0,1,18.157,0c.3.3.585.629.855.943A1.041,1.041,0,1,1,18.5,6.047c-.227-.271-.466-.531-.725-.791A10.65,10.65,0,0,0,2.7,5.3c-.26.26-.5.52-.725.791a1.086,1.086,0,0,1-.735.387q-.051,0-.1,0A1.079,1.079,0,0,1,.446,6.231Z" transform="translate(3.25 5.417)" fill="#001f26"/>
</svg>
