<?xml version="1.0" encoding="utf-8"?>
<!-- Generator: Adobe Illustrator 16.0.0, SVG Export Plug-In . SVG Version: 6.00 Build 0)  -->
<!DOCTYPE svg PUBLIC "-//W3C//DTD SVG 1.1//EN" "http://www.w3.org/Graphics/SVG/1.1/DTD/svg11.dtd">
<svg version="1.1" id="图层_1" xmlns="http://www.w3.org/2000/svg" xmlns:xlink="http://www.w3.org/1999/xlink" x="0px" y="0px"
	 width="177.03px" height="53.03px" viewBox="10.485 10.485 177.03 53.03" enable-background="new 10.485 10.485 177.03 53.03"
	 xml:space="preserve">
<g>
	<g>
		<g>
			<path d="M18.124,11h161.752c3.918,0,7.124,3.198,7.124,7.106v37.789c0,3.907-3.206,7.105-7.124,7.105H18.124
				C14.206,63,11,59.802,11,55.895V18.106C11,14.198,14.206,11,18.124,11"/>
			<path fill="none" stroke="#FFFFFF" stroke-width="1.03" stroke-miterlimit="20" d="M18.124,11L18.124,11h161.752
				c3.918,0,7.124,3.198,7.124,7.106v37.789c0,3.907-3.206,7.105-7.124,7.105H18.124C14.206,63,11,59.802,11,55.895V18.106
				C11,14.198,14.206,11,18.124,11"/>
		</g>
		<g>
			<g>
				<path fill="#FFFFFE" d="M62.53,37.271c-0.026-2.86,2.331-4.253,2.44-4.319c-1.336-1.955-3.406-2.222-4.133-2.243
					c-1.738-0.184-3.424,1.045-4.31,1.045c-0.903,0-2.266-1.028-3.735-0.996c-1.89,0.029-3.661,1.13-4.631,2.837
					c-2.003,3.482-0.509,8.601,1.409,11.414c0.96,1.38,2.08,2.921,3.549,2.864c1.436-0.061,1.972-0.92,3.705-0.92
					c1.718,0,2.22,0.92,3.718,0.886c1.54-0.024,2.511-1.386,3.438-2.776c1.109-1.58,1.554-3.138,1.572-3.217
					C65.515,41.834,62.559,40.701,62.53,37.271"/>
			</g>
			<g>
				<path fill="#FFFFFE" d="M59.697,28.86c0.773-0.97,1.3-2.29,1.155-3.63c-1.119,0.05-2.516,0.777-3.322,1.726
					c-0.712,0.837-1.348,2.207-1.184,3.496C57.602,30.546,58.892,29.815,59.697,28.86"/>
			</g>
			<g>
				<path fill="#FFFFFE" d="M75.773,44.384l-1.177,3.49H72.52l4.642-12.914h2.157l4.641,12.915h-2.111l-1.176-3.49L75.773,44.384z
					 M76.28,42.773h3.885l-1.916-5.665h-0.052L76.28,42.773z"/>
			</g>
			<g>
				<path fill="#FFFFFE" d="M90.078,47.973c-1.336,0-2.396-0.6-2.949-1.647h-0.044v4.664H85.16V38.458h1.862v1.565h0.036
					c0.535-1.01,1.676-1.664,2.984-1.664c2.38,0,3.948,1.89,3.948,4.808C93.99,46.092,92.43,47.973,90.078,47.973z M92.003,43.162
					c0-1.903-0.98-3.155-2.473-3.155c-1.467,0-2.454,1.278-2.454,3.155c0,1.895,0.987,3.163,2.454,3.163
					C91.023,46.325,92.003,45.082,92.003,43.162z"/>
			</g>
			<g>
				<path fill="#FFFFFE" d="M100.398,47.973c-1.336,0-2.396-0.6-2.949-1.647h-0.044v4.664H95.48V38.458h1.862v1.565h0.036
					c0.535-1.01,1.675-1.664,2.983-1.664c2.381,0,3.947,1.89,3.947,4.808C104.309,46.092,102.751,47.973,100.398,47.973z
					 M102.324,43.162c0-1.903-0.98-3.155-2.475-3.155c-1.468,0-2.456,1.278-2.456,3.155c0,1.895,0.988,3.163,2.456,3.163
					C101.346,46.325,102.324,45.082,102.324,43.162z"/>
			</g>
			<g>
				<path fill="#FFFFFE" d="M111.12,44.271c0.142,1.28,1.381,2.121,3.073,2.121c1.621,0,2.789-0.84,2.789-1.996
					c0-1.002-0.705-1.602-2.371-2.013l-1.666-0.403c-2.36-0.573-3.457-1.682-3.457-3.481c0-2.228,1.934-3.759,4.679-3.759
					c2.717,0,4.58,1.53,4.642,3.759h-1.942c-0.116-1.289-1.177-2.067-2.726-2.067c-1.551,0-2.611,0.787-2.611,1.932
					c0,0.913,0.677,1.45,2.334,1.862l1.416,0.349c2.639,0.628,3.734,1.69,3.734,3.581c0,2.416-1.916,3.93-4.963,3.93
					c-2.851,0-4.777-1.479-4.9-3.814H111.12"/>
			</g>
			<g>
				<path fill="#FFFFFE" d="M123.165,36.23v2.228h1.782v1.53h-1.782v5.191c0,0.807,0.358,1.182,1.142,1.182
					c0.195,0,0.508-0.026,0.633-0.045v1.521c-0.213,0.055-0.642,0.09-1.069,0.09c-1.897,0-2.638-0.717-2.638-2.542V39.99h-1.362
					v-1.531h1.362V36.23H123.165"/>
			</g>
			<g>
				<path fill="#FFFFFE" d="M130.426,38.34c2.717,0,4.446,1.862,4.446,4.825c0,2.97-1.72,4.823-4.446,4.823
					c-2.726,0-4.445-1.854-4.445-4.823C125.98,40.202,127.717,38.34,130.426,38.34z M132.909,43.165
					c0-2.033-0.927-3.233-2.483-3.233c-1.558,0-2.482,1.209-2.482,3.233c0,2.04,0.925,3.229,2.482,3.229
					C131.982,46.395,132.909,45.205,132.909,43.165z"/>
			</g>
			<g>
				<path fill="#FFFFFE" d="M136.46,38.458h1.836v1.603h0.044c0.294-1.065,1.15-1.701,2.254-1.701c0.276,0,0.508,0.037,0.66,0.072
					v1.808c-0.152-0.063-0.49-0.116-0.865-0.116c-1.238,0-2.004,0.842-2.004,2.166v5.585h-1.925V38.458"/>
			</g>
			<g>
				<path fill="#FFFFFE" d="M146.09,47.988c-2.727,0-4.42-1.834-4.42-4.779c0-2.953,1.702-4.869,4.339-4.869
					c2.593,0,4.224,1.79,4.224,4.645v0.662h-6.619v0.117c0,1.61,1.007,2.666,2.521,2.666c1.069,0,1.907-0.51,2.165-1.324h1.826
					C149.866,46.816,148.21,47.988,146.09,47.988z M143.622,42.296h4.685c-0.043-1.44-0.961-2.39-2.298-2.39
					C144.682,39.906,143.719,40.873,143.622,42.296z"/>
			</g>
			<g>
				<path fill="#FFFFFE" d="M78.948,28.324c0,1.982-1.066,3.122-2.907,3.122H73.81V25.24h2.231
					C77.874,25.24,78.948,26.37,78.948,28.324z M74.77,30.569h1.164c1.292,0,2.037-0.808,2.037-2.233c0-1.403-0.757-2.22-2.037-2.22
					H74.77V30.569z"/>
			</g>
			<g>
				<path fill="#FFFFFE" d="M82.23,26.67c1.357,0,2.197,0.92,2.197,2.43c0,1.518-0.836,2.434-2.197,2.434
					c-1.366,0-2.2-0.916-2.2-2.435C80.03,27.59,80.869,26.67,82.23,26.67z M83.48,29.1c0-1.016-0.454-1.608-1.25-1.608
					c-0.8,0-1.25,0.592-1.25,1.607c0,1.024,0.45,1.613,1.25,1.613C83.026,30.712,83.48,30.119,83.48,29.1L83.48,29.1z"/>
			</g>
			<g>
				<path fill="#FFFFFE" d="M90.27,31.443h-0.954l-0.963-3.45H88.28l-0.959,3.45h-0.945L85.09,26.76h0.934l0.834,3.573h0.07
					l0.958-3.573h0.882l0.96,3.573H89.8l0.83-3.573h0.921L90.27,31.443"/>
			</g>
			<g>
				<path fill="#FFFFFE" d="M92.64,26.76h0.885v0.744h0.069c0.226-0.52,0.689-0.834,1.39-0.834c1.041,0,1.615,0.627,1.615,1.742
					v3.032h-0.92v-2.8c0-0.753-0.325-1.127-1.007-1.127c-0.68,0-1.113,0.456-1.113,1.186v2.74H92.64V26.76"/>
			</g>
			<g>
				<path fill="#FFFFFE" d="M98.057,31.441h0.92V24.93h-0.92V31.441z"/>
			</g>
			<g>
				<path fill="#FFFFFE" d="M102.46,26.67c1.356,0,2.197,0.92,2.197,2.43c0,1.518-0.837,2.434-2.197,2.434
					c-1.366,0-2.2-0.916-2.2-2.435C100.26,27.59,101.1,26.67,102.46,26.67z M103.71,29.1c0-1.016-0.454-1.608-1.25-1.608
					c-0.8,0-1.25,0.592-1.25,1.607c0,1.024,0.45,1.613,1.25,1.613C103.256,30.712,103.71,30.119,103.71,29.1L103.71,29.1z"/>
			</g>
			<g>
				<path fill="#FFFFFE" d="M107.363,28.72l1.263-0.072v-0.404c0-0.494-0.325-0.774-0.953-0.774c-0.514,0-0.87,0.189-0.973,0.521
					h-0.89c0.094-0.804,0.847-1.32,1.904-1.32c1.169,0,1.827,0.584,1.827,1.574v3.2h-0.885v-0.659h-0.073
					c-0.277,0.47-0.787,0.736-1.4,0.736c-0.898,0-1.554-0.546-1.554-1.402c0-0.843,0.624-1.33,1.733-1.398V28.72z M108.626,29.717
					v-0.39l-1.138,0.073c-0.643,0.043-0.932,0.26-0.932,0.67c0,0.419,0.362,0.663,0.862,0.663
					C108.113,30.733,108.626,30.293,108.626,29.717z"/>
			</g>
			<g>
				<path fill="#FFFFFE" d="M112.686,26.68c0.639,0,1.176,0.306,1.43,0.822h0.07V24.93h0.918v6.511h-0.881v-0.74h-0.074
					c-0.277,0.513-0.821,0.817-1.463,0.817c-1.186,0-1.936-0.937-1.936-2.42C110.75,27.618,111.508,26.68,112.686,26.68z
					 M111.7,29.097c0,0.993,0.466,1.591,1.245,1.591c0.775,0,1.256-0.606,1.256-1.587c0-0.975-0.485-1.59-1.256-1.59
					C112.171,27.511,111.7,28.112,111.7,29.097z"/>
			</g>
			<g>
				<path fill="#FFFFFE" d="M121.109,26.67c1.357,0,2.197,0.92,2.197,2.43c0,1.518-0.836,2.434-2.197,2.434
					c-1.364,0-2.199-0.916-2.199-2.435C118.91,27.59,119.75,26.67,121.109,26.67z M122.359,29.1c0-1.016-0.453-1.608-1.25-1.608
					c-0.799,0-1.25,0.592-1.25,1.607c0,1.024,0.451,1.613,1.25,1.613C121.906,30.712,122.359,30.119,122.359,29.1L122.359,29.1z"/>
			</g>
			<g>
				<path fill="#FFFFFE" d="M124.54,26.76h0.885v0.744h0.069c0.227-0.52,0.689-0.834,1.39-0.834c1.041,0,1.615,0.627,1.615,1.742
					v3.032h-0.92v-2.8c0-0.753-0.325-1.127-1.007-1.127c-0.68,0-1.113,0.456-1.113,1.186v2.74h-0.919V26.76"/>
			</g>
			<g>
				<path fill="#FFFFFE" d="M133.7,25.6v1.187h1.011v0.779h-1.01v2.407c0,0.491,0.201,0.706,0.66,0.706
					c0.14,0,0.222-0.009,0.35-0.021v0.77c-0.166,0.03-0.333,0.046-0.501,0.047c-1.022,0-1.431-0.362-1.431-1.265v-2.644h-0.739
					v-0.78h0.739V25.6H133.7"/>
			</g>
			<g>
				<path fill="#FFFFFE" d="M135.971,24.93h0.911v2.58h0.073c0.225-0.524,0.718-0.838,1.421-0.838c0.993,0,1.606,0.632,1.606,1.746
					v3.023h-0.922v-2.795c0-0.748-0.347-1.127-0.998-1.127c-0.752,0-1.174,0.478-1.174,1.187v2.735h-0.918V24.93"/>
			</g>
			<g>
				<path fill="#FFFFFE" d="M143.322,31.534c-1.334,0-2.152-0.92-2.152-2.418c0-1.496,0.835-2.446,2.15-2.446
					c1.296,0,2.08,0.89,2.08,2.36v0.323h-3.293v0.052c0.031,0.82,0.506,1.342,1.24,1.342c0.559,0,0.94-0.203,1.11-0.568h0.885
					C145.134,31.019,144.389,31.534,143.322,31.534L143.322,31.534z M142.107,28.67h2.345c-0.021-0.735-0.466-1.214-1.144-1.214
					C142.632,27.456,142.159,27.939,142.107,28.67z"/>
			</g>
		</g>
	</g>
</g>
</svg>
