<svg width="178" height="54" viewBox="0 0 178 54" fill="none" xmlns="http://www.w3.org/2000/svg">
<path d="M8.12412 1H169.876C173.794 1 177 4.19781 177 8.10613V45.8941C177 49.8022 173.794 53 169.876 53H8.12412C4.20573 53 1 49.8022 1 45.8941V8.10613C1 4.19781 4.20573 1 8.12412 1" stroke="#001F26" stroke-width="1.035"/>
<path fill-rule="evenodd" clip-rule="evenodd" d="M62.8696 29.0065H69.4616C69.4662 29.0252 69.5807 29.4964 69.5807 30.3C69.5807 34.1874 66.7646 36.816 62.9175 36.8162C58.5433 36.8162 55.5723 33.2689 55.5723 29.6311C55.5723 25.9185 58.7308 22.4813 62.8134 22.4814C66.0197 22.4814 67.7777 24.4335 67.7777 24.4335L66.408 25.8483C66.408 25.8483 65.1012 24.4381 62.8834 24.4381C60.0091 24.4381 57.7165 26.7126 57.7165 29.6658C57.7165 32.6975 60.1214 34.8605 62.8775 34.8605C65.0316 34.8605 67.3137 33.6937 67.5448 30.9575H62.8696V29.0065ZM70.4217 32.163C70.4217 29.7026 72.3601 27.5935 75.0652 27.5935C77.2885 27.5935 79.6997 29.1649 79.6997 32.2165C79.6997 34.8787 77.6269 36.8079 75.0967 36.8079C72.3018 36.8079 70.4217 34.6593 70.4217 32.163ZM77.6826 32.2042C77.6826 30.4757 76.4222 29.4031 75.0919 29.4031C73.5973 29.4031 72.4487 30.5949 72.4487 32.1909C72.4487 33.8217 73.6117 34.9993 75.0858 34.9993C76.4274 34.9993 77.6826 33.896 77.6826 32.2042ZM85.2735 27.5935C82.5685 27.5935 80.6299 29.7026 80.6299 32.163C80.6299 34.6593 82.5102 36.8079 85.3052 36.8079C87.8353 36.8079 89.9081 34.8787 89.9081 32.2165C89.9081 29.1649 87.4971 27.5935 85.2735 27.5935ZM85.3003 29.4031C86.6304 29.4031 87.891 30.4757 87.891 32.2042C87.891 33.896 86.6358 34.9993 85.2941 34.9993C83.8201 34.9993 82.6572 33.8217 82.6572 32.1909C82.6572 30.5949 83.8056 29.4031 85.3003 29.4031ZM90.8381 32.2018C90.8381 29.7673 92.7898 27.5982 95.2724 27.5982V27.5984C96.3533 27.5984 97.1676 28.0156 97.763 28.6557V27.8752H99.6995V36.1541C99.6995 39.4069 97.8181 40.9577 95.3495 40.9577C93.0928 40.9577 91.825 39.5726 91.1951 38.2443L92.9704 37.504C93.2163 38.0979 93.924 39.1442 95.3348 39.1442C96.7953 39.1442 97.7628 38.1925 97.7628 36.6029V35.6944C97.2461 36.2927 96.5462 36.814 95.2296 36.814C93.1006 36.814 90.8381 34.9749 90.8381 32.2018ZM97.9194 32.2115C97.9194 30.4411 96.6694 29.4044 95.4521 29.4044C94.1493 29.4044 92.8701 30.4599 92.8701 32.2287C92.8701 33.9309 94.1018 35.003 95.4252 35.003C96.672 35.003 97.9194 34.0111 97.9194 32.2115ZM108.717 27.5872C106.375 27.5872 104.409 29.4459 104.409 32.1883C104.409 35.0903 106.601 36.8114 108.942 36.8114C110.896 36.8114 112.096 35.7451 112.812 34.7894L111.215 33.7298C110.801 34.3712 110.108 34.9982 108.952 34.9982C107.653 34.998 107.056 34.2888 106.686 33.6018L112.88 31.0383L112.558 30.2871C111.96 28.816 110.564 27.5875 108.717 27.5875L108.717 27.5872ZM108.798 29.3592C109.642 29.3592 110.249 29.8067 110.507 30.3432L106.371 32.0676C106.193 30.7327 107.461 29.3592 108.798 29.3592H108.798ZM103.287 36.5378H101.253V22.9579H103.287V36.5378ZM128.528 36.5378H130.562V22.9579H128.528V36.5378ZM119.774 29.5808V24.9871H122.661C123.924 24.9871 124.964 26.0246 124.964 27.2839C124.964 28.5434 123.924 29.5808 122.661 29.5808H119.774ZM122.661 22.9578H117.74V31.6099H122.661C125.046 31.6099 126.998 29.6634 126.998 27.2839C126.998 24.9046 125.046 22.9578 122.661 22.9578ZM145.582 40.9577L151.473 27.5875H149.251L143.361 40.9577H145.582ZM136.637 34.8565C137.75 34.5539 138.628 33.7417 138.888 32.6124C138.319 32.4285 137.795 32.2801 137.195 32.2079C133.699 31.6836 134.285 35.4961 136.637 34.8565ZM140.923 36.5378H138.888V35.4418C138.42 35.9982 137.847 36.4288 137.121 36.6265C135.83 36.9773 134.258 36.8388 133.301 35.812C132.687 35.1528 132.491 34.0709 132.606 33.1937C132.819 31.5698 134.159 30.5782 135.724 30.4203C136.727 30.3191 137.824 30.5138 138.84 30.7821C138.618 28.5683 135.238 28.0929 134.053 30.1588L132.416 29.063C134.839 25.4316 141.241 26.6165 140.923 31.6538V36.5378Z" fill="#001F26"/>
<path fill-rule="evenodd" clip-rule="evenodd" d="M62.3041 14.6955H59.3042V15.5834H61.4319C61.3267 16.8287 60.2881 17.3596 59.3078 17.3596C58.0536 17.3596 56.9591 16.3752 56.9591 14.9956C56.9591 13.6516 58.0024 12.6165 59.3104 12.6165C60.3199 12.6165 60.9146 13.2583 60.9146 13.2583L61.5378 12.6144C61.5378 12.6144 60.7378 11.7261 59.2786 11.7261C57.4206 11.7259 55.9834 13.2903 55.9834 14.9797C55.9834 16.6352 57.3354 18.2495 59.326 18.2495C61.0769 18.2495 62.3585 17.0532 62.3585 15.2842C62.3585 14.9109 62.3041 14.6952 62.3041 14.6952V14.6955ZM74.5655 18.1229H75.4913V11.9428H74.5655V18.1229ZM70.3067 18.1229H69.3808V12.8662H67.8611V11.9428H71.8264V12.8662H70.3067V18.1229ZM63.3345 18.1229H66.885V17.1995H64.2603V15.4947H66.569V14.5711H64.2603V12.8662H66.885V11.9428H63.3345V18.1229ZM78.6904 18.1229H77.7647V12.8662H76.245V11.9428H80.2101V12.8662H78.6904V18.1229ZM85.8876 11.7261C84.0296 11.7259 82.5923 13.2901 82.5923 14.9797C82.5923 16.6221 83.923 18.2236 85.8876 18.249C87.8523 18.2236 89.183 16.6221 89.183 14.9797C89.183 13.2901 87.7457 11.7259 85.8876 11.7261ZM85.8876 17.3593C84.6456 17.3441 83.5681 16.3645 83.5681 14.9956C83.5681 13.6625 84.5945 12.6336 85.8876 12.6169C87.1809 12.6336 88.2072 13.6625 88.2072 14.9956C88.2072 16.3645 87.1297 17.3441 85.8876 17.3593ZM91.0336 18.1229H90.1078V11.9428H91.0336L94.0055 16.4421V11.9428H94.9314V18.1229H94.0071L91.0336 13.6212V18.1229ZM117.74 36.5379H119.774V22.958H117.74V36.5379ZM141.698 27.5877L146.24 37.8975V34.6983H147.052L143.919 27.5877H141.698Z" fill="#001F26"/>
<path fill-rule="evenodd" clip-rule="evenodd" d="M30.704 19.4342L41.1644 29.8525L30.7542 40.3617C30.4504 40.1696 30.2876 39.7525 30.2848 39.2138C30.2796 38.1812 30.1967 21.7909 30.1905 20.5611C30.1876 19.9713 30.4027 19.6114 30.704 19.4342ZM44.6137 26.3704L31.8939 19.4484C31.758 19.3742 31.6037 19.3292 31.45 19.3091L41.597 29.4157L44.6137 26.3704ZM45.1794 32.9835L42.0328 29.8496L45.1762 26.6765L49.505 29.0317C50.5714 29.6117 50.0259 30.3374 49.505 30.6218L45.1794 32.9835ZM31.6165 40.3651C31.7052 40.3318 31.7978 40.2893 31.8939 40.2369L44.6164 33.2907L41.6001 30.2865L31.6165 40.3651Z" fill="#001F26"/>
</svg>
