<svg width="178" height="54" viewBox="0 0 178 54" fill="none" xmlns="http://www.w3.org/2000/svg">
<path d="M8.12412 1H169.876C173.794 1 177 4.19781 177 8.10613V45.8941C177 49.8022 173.794 53 169.876 53H8.12412C4.20573 53 1 49.8022 1 45.8941V8.10613C1 4.19781 4.20573 1 8.12412 1" stroke="#001F26" stroke-width="1.035"/>
<path fill-rule="evenodd" clip-rule="evenodd" d="M52.5256 27.2716C52.4997 24.4106 54.8571 23.018 54.9658 22.9525C53.6303 20.9973 51.5597 20.73 50.8329 20.7092C49.0947 20.5251 47.4092 21.7544 46.523 21.7544C45.6202 21.7544 44.2567 20.7269 42.7876 20.7581C40.8972 20.7872 39.1268 21.8875 38.1568 23.5952C36.1545 27.0771 37.6484 32.195 39.5658 35.0092C40.5255 36.3883 41.6467 37.9285 43.1148 37.8734C44.5507 37.8141 45.087 36.953 46.8201 36.953C48.5377 36.953 49.0408 37.8734 50.5379 37.8391C52.0784 37.8141 53.0495 36.4538 53.9761 35.0623C55.0849 33.4825 55.53 31.9256 55.5476 31.8466C55.5114 31.8341 52.5546 30.7015 52.5256 27.2716Z" fill="#001F26"/>
<path fill-rule="evenodd" clip-rule="evenodd" d="M49.6975 18.8582C50.4698 17.8879 50.9978 16.5681 50.8519 15.2275C49.7337 15.2775 48.3361 16.0044 47.5306 16.9539C46.8183 17.7901 46.1827 19.1608 46.3463 20.4494C47.6021 20.544 48.892 19.8129 49.6975 18.8582Z" fill="#001F26"/>
<path fill-rule="evenodd" clip-rule="evenodd" d="M66.2846 32.7735H70.169L68.2537 27.1086H68.2009L66.2846 32.7735ZM70.6774 34.3844H65.7773L64.6002 37.8747H62.5244L67.1667 24.96H69.3232L73.9644 37.8747H71.8534L70.6774 34.3844Z" fill="#001F26"/>
<path fill-rule="evenodd" clip-rule="evenodd" d="M82.0118 33.1672C82.0118 31.2609 81.0303 30.0077 79.5343 30.0077C78.0642 30.0077 77.0755 31.2869 77.0755 33.1672C77.0755 35.0642 78.0642 36.3351 79.5343 36.3351C81.0303 36.3351 82.0118 35.0902 82.0118 33.1672ZM83.9892 33.1672C83.9892 36.0928 82.43 37.9731 80.0768 37.9731C78.7413 37.9731 77.6812 37.373 77.1283 36.3257H77.0838V40.9891H75.1592V28.4581H77.0217V30.0244H77.0569C77.5921 29.0145 78.733 28.3604 80.0416 28.3604C82.4207 28.3604 83.9892 30.249 83.9892 33.1672Z" fill="#001F26"/>
<path fill-rule="evenodd" clip-rule="evenodd" d="M92.3272 33.1672C92.3272 31.2609 91.3467 30.0077 89.8507 30.0077C88.3806 30.0077 87.3919 31.2869 87.3919 33.1672C87.3919 35.0642 88.3806 36.3351 89.8507 36.3351C91.3467 36.3351 92.3272 35.0902 92.3272 33.1672ZM94.3046 33.1672C94.3046 36.0928 92.7465 37.9731 90.3932 37.9731C89.0577 37.9731 87.9976 37.373 87.4447 36.3257H87.4002V40.9891H85.4756V28.4581H87.3381V30.0244H87.3733C87.9085 29.0145 89.0484 28.3604 90.358 28.3604C92.7371 28.3604 94.3046 30.249 94.3046 33.1672Z" fill="#001F26"/>
<path fill-rule="evenodd" clip-rule="evenodd" d="M101.124 34.2762C101.266 35.5575 102.506 36.3978 104.197 36.3978C105.82 36.3978 106.986 35.5575 106.986 34.4021C106.986 33.3995 106.282 32.7994 104.617 32.3886L102.95 31.9851C100.589 31.4121 99.4928 30.3034 99.4928 28.5032C99.4928 26.2755 101.427 24.7446 104.171 24.7446C106.888 24.7446 108.75 26.2755 108.813 28.5032H106.87C106.754 27.2146 105.693 26.4367 104.144 26.4367C102.594 26.4367 101.533 27.224 101.533 28.369C101.533 29.2821 102.21 29.8198 103.868 30.2317L105.284 30.5801C107.922 31.2072 109.019 32.2711 109.019 34.1608C109.019 36.5767 107.102 38.0899 104.055 38.0899C101.204 38.0899 99.2785 36.6121 99.1543 34.2762H101.124Z" fill="#001F26"/>
<path fill-rule="evenodd" clip-rule="evenodd" d="M113.17 26.2305V28.4581H114.953V29.989H113.17V35.1797C113.17 35.9867 113.528 36.3621 114.311 36.3621C114.507 36.3621 114.82 36.3351 114.944 36.3174V37.8389C114.731 37.893 114.303 37.9284 113.875 37.9284C111.978 37.9284 111.237 37.2118 111.237 35.3866V29.989H109.875V28.4581H111.237V26.2305H113.17Z" fill="#001F26"/>
<path fill-rule="evenodd" clip-rule="evenodd" d="M122.917 33.1673C122.917 31.1352 121.99 29.935 120.431 29.935C118.872 29.935 117.946 31.1435 117.946 33.1673C117.946 35.2078 118.872 36.3976 120.431 36.3976C121.99 36.3976 122.917 35.2078 122.917 33.1673ZM115.985 33.1673C115.985 30.2044 117.723 28.3428 120.431 28.3428C123.149 28.3428 124.877 30.2044 124.877 33.1673C124.877 36.1376 123.158 37.9909 120.431 37.9909C117.705 37.9909 115.985 36.1376 115.985 33.1673Z" fill="#001F26"/>
<path fill-rule="evenodd" clip-rule="evenodd" d="M126.463 28.4581H128.298V30.0608H128.343C128.637 28.9958 129.492 28.3604 130.597 28.3604C130.873 28.3604 131.104 28.3968 131.256 28.4321V30.2396C131.104 30.1772 130.766 30.1232 130.392 30.1232C129.154 30.1232 128.388 30.9656 128.388 32.2895V37.8743H126.463V28.4581Z" fill="#001F26"/>
<path fill-rule="evenodd" clip-rule="evenodd" d="M133.623 32.2989H138.309C138.265 30.8575 137.347 29.909 136.011 29.909C134.684 29.909 133.722 30.8762 133.623 32.2989ZM140.127 35.109C139.868 36.8188 138.212 37.9909 136.092 37.9909C133.365 37.9909 131.672 36.1563 131.672 33.2121C131.672 30.2585 133.374 28.3428 136.011 28.3428C138.604 28.3428 140.235 30.1326 140.235 32.9874V33.6499H133.614V33.7664C133.614 35.3773 134.621 36.4329 136.136 36.4329C137.204 36.4329 138.043 35.9233 138.301 35.109H140.127Z" fill="#001F26"/>
<path fill-rule="evenodd" clip-rule="evenodd" d="M64.7722 20.5667H65.9369C67.229 20.5667 67.9733 19.7586 67.9733 18.3348C67.9733 16.9329 67.2165 16.1155 65.9369 16.1155H64.7722V20.5667ZM66.0436 15.2388C67.876 15.2388 68.9507 16.3692 68.9507 18.3224C68.9507 20.3046 67.8843 21.4444 66.0436 21.4444H63.8125V15.2388H66.0436Z" fill="#001F26"/>
<path fill-rule="evenodd" clip-rule="evenodd" d="M73.4848 19.1003C73.4848 18.0853 73.0303 17.4925 72.2342 17.4925C71.4339 17.4925 70.9846 18.0853 70.9846 19.1003C70.9846 20.1237 71.4339 20.7134 72.2342 20.7134C73.0303 20.7134 73.4848 20.1195 73.4848 19.1003ZM70.0342 19.1003C70.0342 17.5913 70.8728 16.6709 72.2342 16.6709C73.5915 16.6709 74.4311 17.5913 74.4311 19.1003C74.4311 20.6187 73.5956 21.535 72.2342 21.535C70.8686 21.535 70.0342 20.6187 70.0342 19.1003Z" fill="#001F26"/>
<path fill-rule="evenodd" clip-rule="evenodd" d="M80.2753 21.4444H79.3208L78.358 17.9947H78.2845L77.3258 21.4444H76.3806L75.0947 16.7612H76.0286L76.863 20.3347H76.9324L77.8911 16.7612H78.7731L79.7318 20.3347H79.8043L80.6356 16.7612H81.556L80.2753 21.4444Z" fill="#001F26"/>
<path fill-rule="evenodd" clip-rule="evenodd" d="M82.6367 16.7614H83.5219V17.505H83.5902C83.817 16.985 84.2797 16.6709 84.9817 16.6709C86.0221 16.6709 86.5957 17.298 86.5957 18.4129V21.4445H85.6753V18.6448C85.6753 17.8919 85.3502 17.5175 84.669 17.5175C83.9888 17.5175 83.5561 17.974 83.5561 18.7041V21.4445H82.6367V16.7614Z" fill="#001F26"/>
<path fill-rule="evenodd" clip-rule="evenodd" d="M88.0623 21.4445H88.9827V14.9331H88.0623V21.4445Z" fill="#001F26"/>
<path fill-rule="evenodd" clip-rule="evenodd" d="M93.7114 19.1003C93.7114 18.0853 93.2569 17.4925 92.4607 17.4925C91.6605 17.4925 91.2111 18.0853 91.2111 19.1003C91.2111 20.1237 91.6605 20.7134 92.4607 20.7134C93.2569 20.7134 93.7114 20.1195 93.7114 19.1003ZM90.2607 19.1003C90.2607 17.5913 91.0993 16.6709 92.4607 16.6709C93.818 16.6709 94.6576 17.5913 94.6576 19.1003C94.6576 20.6187 93.8222 21.535 92.4607 21.535C91.0952 21.535 90.2607 20.6187 90.2607 19.1003Z" fill="#001F26"/>
<path fill-rule="evenodd" clip-rule="evenodd" d="M98.6231 19.7202V19.3281L97.4853 19.4009C96.8434 19.4446 96.5525 19.664 96.5525 20.0769C96.5525 20.4981 96.9159 20.7435 97.4159 20.7435C98.1096 20.7435 98.6231 20.3005 98.6231 19.7202ZM95.627 20.1195C95.627 19.2771 96.2512 18.7904 97.3611 18.7218L98.6231 18.649V18.2444C98.6231 17.7504 98.298 17.4707 97.6696 17.4707C97.1561 17.4707 96.7999 17.6599 96.6974 17.9907H95.8071C95.9013 17.1867 96.654 16.6709 97.712 16.6709C98.8809 16.6709 99.5393 17.2554 99.5393 18.2444V21.4445H98.6542V20.7862H98.5806C98.3032 21.2552 97.7938 21.5215 97.1809 21.5215C96.2823 21.5215 95.627 20.9755 95.627 20.1195Z" fill="#001F26"/>
<path fill-rule="evenodd" clip-rule="evenodd" d="M101.699 19.1004C101.699 20.0936 102.165 20.6916 102.945 20.6916C103.72 20.6916 104.2 20.0853 104.2 19.1045C104.2 18.129 103.715 17.5133 102.945 17.5133C102.17 17.5133 101.699 18.1155 101.699 19.1004ZM100.749 19.1004C100.749 17.6205 101.507 16.6834 102.684 16.6834C103.323 16.6834 103.861 16.9892 104.114 17.505H104.183V14.9331H105.102V21.4445H104.221V20.7041H104.148C103.87 21.2168 103.326 21.5215 102.684 21.5215C101.499 21.5215 100.749 20.5845 100.749 19.1004Z" fill="#001F26"/>
<path fill-rule="evenodd" clip-rule="evenodd" d="M112.36 19.1003C112.36 18.0853 111.905 17.4925 111.109 17.4925C110.309 17.4925 109.86 18.0853 109.86 19.1003C109.86 20.1237 110.309 20.7134 111.109 20.7134C111.905 20.7134 112.36 20.1195 112.36 19.1003ZM108.909 19.1003C108.909 17.5913 109.749 16.6709 111.109 16.6709C112.466 16.6709 113.306 17.5913 113.306 19.1003C113.306 20.6187 112.471 21.535 111.109 21.535C109.745 21.535 108.909 20.6187 108.909 19.1003Z" fill="#001F26"/>
<path fill-rule="evenodd" clip-rule="evenodd" d="M114.541 16.7614H115.426V17.505H115.495C115.721 16.985 116.184 16.6709 116.886 16.6709C117.926 16.6709 118.5 17.298 118.5 18.4129V21.4445H117.58V18.6448C117.58 17.8919 117.255 17.5175 116.573 17.5175C115.893 17.5175 115.46 17.974 115.46 18.7041V21.4445H114.541V16.7614Z" fill="#001F26"/>
<path fill-rule="evenodd" clip-rule="evenodd" d="M123.698 15.5957V16.7823H124.708V17.5613H123.698V19.9689C123.698 20.4598 123.9 20.6751 124.357 20.6751C124.499 20.6751 124.58 20.6657 124.708 20.6532V21.4228C124.558 21.4488 124.386 21.4707 124.207 21.4707C123.184 21.4707 122.777 21.1087 122.777 20.206V17.5613H122.037V16.7823H122.777V15.5957H123.698Z" fill="#001F26"/>
<path fill-rule="evenodd" clip-rule="evenodd" d="M125.965 14.9331H126.877V17.5133H126.949C127.175 16.9892 127.668 16.6751 128.371 16.6751C129.364 16.6751 129.977 17.3074 129.977 18.4213V21.4445H129.055V18.649C129.055 17.9013 128.708 17.5217 128.058 17.5217C127.305 17.5217 126.884 18.0001 126.884 18.7093V21.4445H125.965V14.9331Z" fill="#001F26"/>
<path fill-rule="evenodd" clip-rule="evenodd" d="M132.105 18.6708H134.46C134.438 17.9355 133.993 17.4571 133.312 17.4571C132.632 17.4571 132.157 17.9397 132.105 18.6708ZM135.341 20.1799C135.132 21.0191 134.387 21.535 133.321 21.535C131.986 21.535 131.168 20.6146 131.168 19.117C131.168 17.6204 132.003 16.6709 133.317 16.6709C134.614 16.6709 135.397 17.5611 135.397 19.0317V19.3541H132.105V19.4061C132.136 20.2267 132.611 20.7477 133.346 20.7477C133.904 20.7477 134.285 20.5449 134.456 20.1799H135.341Z" fill="#001F26"/>
</svg>
