<?xml version="1.0" encoding="utf-8"?>
<!-- Generator: Adobe Illustrator 16.0.0, SVG Export Plug-In . SVG Version: 6.00 Build 0)  -->
<!DOCTYPE svg PUBLIC "-//W3C//DTD SVG 1.1//EN" "http://www.w3.org/Graphics/SVG/1.1/DTD/svg11.dtd">
<svg version="1.1" id="图层_1" xmlns="http://www.w3.org/2000/svg" xmlns:xlink="http://www.w3.org/1999/xlink" x="0px" y="0px"
	 width="177.03px" height="53.03px" viewBox="10.485 10.485 177.03 53.03" enable-background="new 10.485 10.485 177.03 53.03"
	 xml:space="preserve">
<g>
	<g>
		<g>
			<path d="M18.124,11h161.752c3.918,0,7.124,3.198,7.124,7.106v37.789c0,3.907-3.206,7.105-7.124,7.105H18.124
				C14.206,63,11,59.802,11,55.895V18.106C11,14.198,14.206,11,18.124,11"/>
			<path fill="none" stroke="#FFFFFF" stroke-width="1.03" stroke-miterlimit="20" d="M18.124,11L18.124,11h161.752
				c3.918,0,7.124,3.198,7.124,7.106v37.789c0,3.907-3.206,7.105-7.124,7.105H18.124C14.206,63,11,59.802,11,55.895V18.106
				C11,14.198,14.206,11,18.124,11"/>
		</g>
		<g>
			<path fill="#FFFFFE" d="M79.46,39.005h-6.593v1.951h4.675c-0.23,2.735-2.513,3.903-4.667,3.903c-2.756,0-5.16-2.164-5.16-5.195
				c0-2.953,2.292-5.227,5.166-5.227c2.218,0,3.525,1.41,3.525,1.41l1.37-1.415c0,0-1.759-1.952-4.965-1.952
				c-4.082,0-7.241,3.437-7.241,7.15c0,3.638,2.971,7.185,7.345,7.185c3.847,0,6.663-2.629,6.663-6.516
				C79.578,39.479,79.459,39.004,79.46,39.005L79.46,39.005"/>
		</g>
		<g>
			<path fill="#FFFFFE" d="M87.68,42.2c0,1.69-1.254,2.794-2.596,2.794c-1.474,0-2.637-1.178-2.637-2.807
				c0-1.595,1.149-2.785,2.643-2.785C86.42,39.402,87.68,40.473,87.68,42.2L87.68,42.2z M85.063,37.59
				c-2.705,0-4.643,2.11-4.643,4.57c0,2.496,1.88,4.645,4.675,4.645c2.53,0,4.603-1.93,4.603-4.591
				C89.698,39.161,87.287,37.59,85.063,37.59L85.063,37.59z"/>
		</g>
		<g>
			<path fill="#FFFFFE" d="M97.891,42.2c0,1.69-1.255,2.794-2.597,2.794c-1.474,0-2.637-1.178-2.637-2.807
				c0-1.595,1.149-2.785,2.643-2.785C96.63,39.402,97.891,40.473,97.891,42.2L97.891,42.2z M95.273,37.59
				c-2.704,0-4.643,2.11-4.643,4.57c0,2.496,1.88,4.645,4.675,4.645c2.53,0,4.603-1.93,4.603-4.591
				C99.908,39.161,97.498,37.59,95.273,37.59z"/>
		</g>
		<g>
			<path fill="#FFFFFE" d="M107.921,42.208c0,1.797-1.247,2.787-2.494,2.787c-1.323,0-2.555-1.07-2.555-2.771
				c0-1.765,1.28-2.818,2.582-2.818C106.671,39.406,107.921,40.441,107.921,42.208z M105.273,37.6c-2.481,0-4.434,2.17-4.434,4.604
				c0,2.772,2.264,4.612,4.393,4.612c1.315,0,2.016-0.522,2.533-1.121v0.91c0,1.59-0.969,2.541-2.429,2.541
				c-1.411,0-2.119-1.047-2.364-1.641l-1.775,0.74c0.63,1.328,1.898,2.714,4.154,2.714c2.469,0,4.35-1.551,4.35-4.804v-8.279h-1.936
				v0.78c-0.596-0.64-1.41-1.058-2.49-1.058H105.273z"/>
		</g>
		<g>
			<path fill="#FFFFFE" d="M120.508,40.346l-4.136,1.725c-0.179-1.336,1.09-2.709,2.427-2.709
				C119.643,39.361,120.25,39.809,120.508,40.346L120.508,40.346z M118.718,37.59c-2.342,0-4.308,1.859-4.308,4.602
				c0,2.901,2.191,4.623,4.533,4.623c1.953,0,3.154-1.066,3.869-2.022l-1.597-1.06c-0.413,0.642-1.106,1.269-2.263,1.269
				c-1.299,0-1.896-0.71-2.266-1.396l6.193-2.564l-0.322-0.751C121.961,38.818,120.564,37.59,118.718,37.59L118.718,37.59z"/>
		</g>
		<g>
			<path fill="#FFFFFE" d="M111.25,46.54h2.034V32.96h-2.034V46.54z"/>
		</g>
		<g>
			<path fill="#FFFFFE" d="M138.529,46.54h2.035V32.96h-2.035V46.54z"/>
		</g>
		<g>
			<path fill="#FFFFFE" d="M127.74,46.54h2.033V32.96h-2.033V46.54z"/>
		</g>
		<g>
			<path fill="#FFFFFE" d="M132.661,32.96c2.385,0,4.337,1.947,4.337,4.326c0,2.38-1.952,4.325-4.337,4.325h-4.921V32.96H132.661z
				 M129.773,34.99v4.593h2.888c1.268-0.005,2.294-1.029,2.303-2.297c0-1.26-1.04-2.297-2.303-2.297L129.773,34.99z"/>
		</g>
		<g>
			<path fill="#FFFFFE" d="M155.582,50.96l5.891-13.37h-2.223l-5.891,13.37H155.582"/>
		</g>
		<g>
			<path fill="#FFFFFE" d="M156.242,47.9L151.7,37.59h2.222l3.133,7.11h-0.813V47.9"/>
		</g>
		<g>
			<path fill="#FFFFFE" d="M148.893,46.533v-1.096c-0.469,0.557-1.041,0.986-1.768,1.185c-1.291,0.351-2.863,0.212-3.82-0.815
				c-0.613-0.658-0.81-1.74-0.695-2.617c0.213-1.625,1.554-2.615,3.119-2.773c1.002-0.102,2.1,0.093,3.115,0.361
				c-0.222-2.213-3.602-2.689-4.787-0.623l-1.637-1.096c2.423-3.632,8.825-2.447,8.507,2.59v4.885H148.893z M147.193,42.203
				c-3.491-0.523-2.906,3.288-0.557,2.648c1.111-0.303,1.988-1.115,2.248-2.244C148.316,42.424,147.793,42.275,147.193,42.203z"/>
		</g>
		<g>
			<path fill="#FFFFFE" d="M72.3,24.7h-3v0.887h2.128c-0.105,1.246-1.143,1.777-2.124,1.777c-1.291,0.006-2.342-1.034-2.348-2.324
				c0-0.013,0-0.026,0-0.04c0-1.344,1.043-2.38,2.351-2.38c1.01,0,1.604,0.642,1.604,0.642l0.623-0.644c0,0-0.8-0.888-2.259-0.888
				c-1.858,0-3.295,1.564-3.295,3.254c0.022,1.826,1.518,3.289,3.343,3.27c1.75,0,3.032-1.197,3.032-2.966
				C72.355,24.915,72.301,24.699,72.3,24.7"/>
		</g>
		<g>
			<path fill="#FFFFFE" d="M84.57,28.12h0.926v-6.18H84.57V28.12z"/>
		</g>
		<g>
			<path fill="#FFFFFE" d="M79.38,28.12h0.926v-5.257h1.52V21.94H77.86v0.923h1.52V28.12"/>
		</g>
		<g>
			<path fill="#FFFFFE" d="M73.33,28.12h3.55v-0.923h-2.624v-1.705h2.309v-0.924h-2.31v-1.705h2.626V21.94H73.33V28.12"/>
		</g>
		<g>
			<path fill="#FFFFFE" d="M87.76,28.12h0.925v-5.257h1.52V21.94H86.24v0.923h1.52V28.12"/>
		</g>
		<g>
			<path fill="#FFFFFE" d="M93.566,25c0-1.334,1.024-2.363,2.314-2.38c1.29,0.017,2.315,1.046,2.315,2.38
				c0.016,1.289-1.016,2.347-2.305,2.363c-0.003,0-0.007,0-0.01,0c-1.289-0.011-2.325-1.064-2.314-2.354
				C93.566,25.006,93.566,25.003,93.566,25z M95.886,21.73c-1.859,0-3.296,1.564-3.296,3.254c0.021,1.807,1.488,3.262,3.295,3.269
				c1.808-0.006,3.275-1.462,3.296-3.27c0-1.689-1.438-3.253-3.296-3.253H95.886z"/>
		</g>
		<g>
			<path fill="#FFFFFE" d="M100.109,28.12h0.927v-4.502l2.973,4.502h0.925v-6.18h-0.926v4.5l-2.972-4.5h-0.927V28.12"/>
		</g>
		<g>
			<path fill="#00B4FF" d="M40.704,29.43l10.46,10.417l-10.41,10.51c-0.304-0.192-0.467-0.609-0.47-1.147L40.19,30.557
				C40.187,29.967,40.402,29.607,40.704,29.43z"/>
		</g>
		<g>
			<path fill="#00F665" d="M54.614,36.371l-12.72-6.922c-0.138-0.073-0.289-0.121-0.444-0.139l10.147,10.107L54.614,36.371z"/>
		</g>
		<g>
			<path fill="#FFC900" d="M55.177,42.986l-3.147-3.133l3.143-3.173l4.33,2.355c1.066,0.58,0.52,1.306,0,1.59L55.177,42.986z"/>
		</g>
		<g>
			<path fill="#FF013A" d="M41.62,50.369c0.089-0.034,0.181-0.076,0.277-0.129l12.723-6.946l-3.016-3.004L41.62,50.369z"/>
		</g>
	</g>
</g>
</svg>
