<svg width="39" height="39" viewBox="0 0 39 39" fill="none" xmlns="http://www.w3.org/2000/svg">
<mask id="mask0" mask-type="alpha" maskUnits="userSpaceOnUse" x="0" y="0" width="39" height="39">
<path fill-rule="evenodd" clip-rule="evenodd" d="M0 0H39V39H0V0Z" fill="white"/>
</mask>
<g mask="url(#mask0)">
<path fill-rule="evenodd" clip-rule="evenodd" d="M19.5 0C14.2041 0 13.5401 0.0224502 11.4602 0.117361C9.38463 0.212039 7.9671 0.541747 6.72676 1.02389C5.44446 1.5222 4.35699 2.18905 3.27285 3.27324C2.18879 4.35751 1.52202 5.44511 1.02376 6.72756C0.541683 7.96805 0.212013 9.38575 0.117347 11.4615C0.0224476 13.5417 0 14.2058 0 19.5024C0 24.7988 0.0224476 25.463 0.117347 27.5431C0.212013 29.6189 0.541683 31.0366 1.02376 32.2771C1.52202 33.5595 2.18879 34.6471 3.27285 35.7314C4.35699 36.8156 5.44446 37.4824 6.72676 37.9808C7.9671 38.4629 9.38463 38.7926 11.4602 38.8873C13.5401 38.9822 14.2041 39.0046 19.5 39.0046C24.7959 39.0046 25.4599 38.9822 27.5398 38.8873C29.6154 38.7926 31.0329 38.4629 32.2732 37.9808C33.5555 37.4824 34.643 36.8156 35.7271 35.7314C36.8112 34.6471 37.478 33.5595 37.9763 32.2771C38.4583 31.0366 38.788 29.6189 38.8827 27.5431C38.9776 25.463 39 24.7988 39 19.5024C39 14.2058 38.9776 13.5417 38.8827 11.4615C38.788 9.38575 38.4583 7.96805 37.9763 6.72756C37.478 5.44511 36.8112 4.35751 35.7271 3.27324C34.643 2.18905 33.5555 1.5222 32.2732 1.02389C31.0329 0.541747 29.6154 0.212039 27.5398 0.117361C25.4599 0.0224502 24.7959 0 19.5 0ZM19.5 3.51392C24.7067 3.51392 25.3234 3.53381 27.3796 3.62764C29.2809 3.71434 30.3134 4.03205 31.0005 4.29913C31.9107 4.65292 32.5603 5.07552 33.2426 5.75801C33.925 6.44042 34.3476 7.09008 34.7013 8.0004C34.9684 8.68761 35.2861 9.72025 35.3727 11.6217C35.4666 13.6781 35.4865 14.295 35.4865 19.5024C35.4865 24.7096 35.4666 25.3265 35.3727 27.3829C35.2861 29.2844 34.9684 30.317 34.7013 31.0042C34.3476 31.9145 33.925 32.5642 33.2426 33.2466C32.5603 33.9291 31.9107 34.3517 31.0005 34.7055C30.3134 34.9726 29.2809 35.2903 27.3796 35.377C25.3238 35.4708 24.7071 35.4907 19.5 35.4907C14.2929 35.4907 13.6763 35.4708 11.6203 35.377C9.71906 35.2903 8.68655 34.9726 7.99942 34.7055C7.08921 34.3517 6.43963 33.9291 5.7573 33.2466C5.07497 32.5642 4.65234 31.9145 4.2986 31.0042C4.03155 30.317 3.71388 29.2844 3.62718 27.3829C3.53337 25.3265 3.51347 24.7096 3.51347 19.5024C3.51347 14.295 3.53337 13.6781 3.62718 11.6217C3.71388 9.72025 4.03155 8.68761 4.2986 8.0004C4.65234 7.09008 5.07489 6.44042 5.7573 5.75801C6.43963 5.07552 7.08921 4.65292 7.99942 4.29913C8.68655 4.03205 9.71906 3.71434 11.6203 3.62764C13.6765 3.53381 14.2933 3.51392 19.5 3.51392Z" fill="#001F26"/>
</g>
<path fill-rule="evenodd" clip-rule="evenodd" d="M19.4998 26.003C15.9099 26.003 12.9998 23.0925 12.9998 19.5023C12.9998 15.9119 15.9099 13.0015 19.4998 13.0015C23.0897 13.0015 25.9998 15.9119 25.9998 19.5023C25.9998 23.0925 23.0897 26.003 19.4998 26.003ZM19.4999 9.48755C13.9695 9.48755 9.48633 13.9712 9.48633 19.5023C9.48633 25.0332 13.9695 29.5169 19.4999 29.5169C25.0302 29.5169 29.5133 25.0332 29.5133 19.5023C29.5133 13.9712 25.0302 9.48755 19.4999 9.48755Z" fill="#001F26"/>
<path fill-rule="evenodd" clip-rule="evenodd" d="M32.2493 9.09203C32.2493 10.3845 31.2017 11.4323 29.9093 11.4323C28.617 11.4323 27.5693 10.3845 27.5693 9.09203C27.5693 7.79952 28.617 6.75171 29.9093 6.75171C31.2017 6.75171 32.2493 7.79952 32.2493 9.09203Z" fill="#001F26"/>
</svg>
