<?xml version="1.0" encoding="UTF-8"?>
<svg width="44px" height="45px" viewBox="0 0 44 45" version="1.1" xmlns="http://www.w3.org/2000/svg" xmlns:xlink="http://www.w3.org/1999/xlink">
    <title>3. Icons / Social Media / Instagram</title>
    <g id="Symbols" stroke="none" stroke-width="1" fill="none" fill-rule="evenodd">
        <g id="13.-Sections/A.-CW/8.-Contacts/Social-Media" transform="translate(-1231.000000, -75.000000)" fill="#FFFFFF">
            <g id="3.-Icons-/-Social-Media-/-Instagram" transform="translate(1229.000000, 73.000000)">
                <path d="M25.1273501,2.00035844 C25.245314,2.00043997 25.360922,2.00053603 25.4742489,2.00064725 L26.1274369,2.00150139 C26.2319391,2.00167573 26.3343101,2.00186647 26.4346246,2.00207425 L27.0124336,2.0035303 C29.3221418,2.01049055 30.4401792,2.02887892 31.5364599,2.06847935 L31.7997485,2.07839573 C32.1958518,2.09389625 32.6012651,2.11224728 33.0705719,2.13390532 C35.4122154,2.24193052 37.0114739,2.61811967 38.410836,3.16822675 C39.8575305,3.73679439 41.0844175,4.49765219 42.3075494,5.73468649 C43.530594,6.97180912 44.2828472,8.21272986 44.8450722,9.67597229 C45.3888707,11.0913409 45.7608055,12.7088924 45.867609,15.0773207 C45.8890221,15.5519956 45.9071656,15.9620462 45.9224908,16.362681 L45.9368934,16.762222 C45.9818817,18.0971951 45.9972273,19.5320247 45.9996456,23.1114724 L45.9996456,25.3918911 C45.9972273,28.9712874 45.9818817,30.4061024 45.9368934,31.7410713 L45.9274955,32.0073396 L45.9274955,32.0073396 L45.9172774,32.2745805 C45.9030934,32.6331656 45.8866429,33.0040377 45.867609,33.4259709 C45.7608055,35.7943992 45.3888707,37.4119507 44.8450722,38.8273194 C44.2828472,40.2905618 43.530594,41.5314825 42.3075494,42.7686052 C41.0844175,44.0056395 39.8575305,44.7664973 38.410836,45.3351532 C37.0114739,45.885172 35.4122154,46.2613611 33.0705719,46.3693863 C32.6534103,46.3886379 32.2867324,46.4052766 31.9322026,46.4196229 L31.5364599,46.4348123 C30.2209231,46.4823328 28.8740566,46.499308 25.4742489,46.5026444 L22.5258172,46.5026444 C19.0126326,46.4991968 17.6915707,46.481186 16.332017,46.4299578 L16.0677979,46.4196229 C15.7132676,46.4052766 15.3465897,46.3886379 14.9294281,46.3693863 C12.5877846,46.2613611 10.9885261,45.885172 9.58916404,45.3351532 C8.14246955,44.7664973 6.9155825,44.0056395 5.69245059,42.7686052 C4.46940602,41.5314825 3.71715283,40.2905618 3.15501517,38.8273194 C2.6111293,37.4119507 2.23919451,35.7943992 2.13239097,33.4259709 C2.04673855,31.5272712 2.01339978,30.6625609 2.00349037,27.298537 L2.00205079,26.7141187 C2.00184536,26.6126568 2.00165678,26.5091149 2.00148441,26.4034173 L2.00063993,25.7427578 C2.00052997,25.6281346 2.000435,25.5112043 2.00035439,25.3918911 L2.00035439,23.1114724 C2.000435,22.9921575 2.00052997,22.8752255 2.00063993,22.7606006 L2.00148441,22.0999319 C2.00165678,21.9942328 2.00184536,21.8906895 2.00205079,21.7892261 L2.00349037,21.2047999 C2.01339978,17.8407308 2.04673855,16.9760204 2.13239097,15.0773207 C2.23919451,12.7088924 2.6111293,11.0913409 3.15501517,9.67597229 C3.71715283,8.21272986 4.46940602,6.97180912 5.69245059,5.73468649 C6.9155825,4.49765219 8.14246955,3.73679439 9.58916404,3.16822675 C10.9885261,2.61811967 12.5877846,2.24193052 14.9294281,2.13390532 C16.8066553,2.04727317 17.6615866,2.01355306 20.9876111,2.0035303 L21.565428,2.00207425 C21.6657439,2.00186647 21.7681163,2.00167573 21.87262,2.00150139 L22.5258172,2.00064725 C22.6391457,2.00053603 22.7547553,2.00043997 22.8727209,2.00035844 Z M24.7531802,6.00943833 L23.246896,6.00943833 C23.1262868,6.00948587 23.0080856,6.00954598 22.8922177,6.00961933 L22.2244128,6.01022372 C19.5535811,6.01344908 18.2477553,6.02579502 17.1405404,6.05783302 L16.878025,6.06590564 C16.3149159,6.08423896 15.7802798,6.1081257 15.1101121,6.13905229 C12.9651338,6.23797971 11.8002505,6.60047801 11.0250297,6.90520978 C9.99812639,7.30886895 9.26526027,7.79105176 8.49545392,8.56975183 C7.72556025,9.34836356 7.24883048,10.0896125 6.84973633,11.128262 C6.5484508,11.9123501 6.19005202,13.0905579 6.09224339,15.2600714 C5.99580873,17.3978536 5.96860581,18.1721178 5.96453169,22.7866169 L5.96453169,25.7167415 C5.96860581,30.3311739 5.99580873,31.1054381 6.09224339,33.2432202 C6.19005202,35.4127337 6.5484508,36.5909415 6.84973633,37.3750296 C7.24883048,38.4136791 7.72564758,39.1549281 8.49545392,39.9335398 C9.26526027,40.7122399 9.99812639,41.1944227 11.0250297,41.5980819 C11.8002505,41.9028136 12.9651338,42.2653119 15.1101121,42.3642394 C15.5224764,42.3832711 15.8835179,42.3996369 16.23146,42.4136831 L16.4905577,42.4237882 C16.576503,42.4270152 16.6622269,42.4301027 16.7483265,42.433056 L17.00835,42.4415189 C18.101455,42.4751492 19.3465924,42.4886645 21.9102471,42.4926364 L22.5514369,42.4934119 C22.6627203,42.4935124 22.7762625,42.493599 22.8921384,42.4936723 L25.1079337,42.4936723 C25.2238081,42.493599 25.337349,42.4935124 25.448631,42.4934119 L26.0898138,42.4926364 C28.6534424,42.4886645 29.8985932,42.4751492 30.9916914,42.4415189 L31.2517127,42.433056 C31.3378115,42.4301027 31.4235343,42.4270152 31.5094785,42.4237882 L31.7685719,42.4136831 C32.1165076,42.3996369 32.4775391,42.3832711 32.8898879,42.3642394 C35.0348662,42.2653119 36.1997495,41.9028136 36.9749703,41.5980819 C38.0018736,41.1944227 38.7347397,40.7122399 39.5045461,39.9335398 C40.2744398,39.1549281 40.7511695,38.4136791 41.1502637,37.3750296 C41.4515492,36.5909415 41.809948,35.4127337 41.9077566,33.2432202 C41.9994871,31.2097201 42.0285755,30.4099564 42.0347016,26.3652149 L42.0354683,25.7167415 C42.0355677,25.6041944 42.0356533,25.4893628 42.0357258,25.3721713 L42.0357258,23.1311922 C42.0356533,23.013999 42.0355677,22.8991657 42.0354683,22.7866169 L42.0347016,22.1381343 C42.0285755,18.0933353 41.9994871,17.2935715 41.9077566,15.2600714 C41.809948,13.0905579 41.4515492,11.9123501 41.1502637,11.128262 C40.7511695,10.0896125 40.2744398,9.34836356 39.5045461,8.56975183 C38.7347397,7.79105176 38.0018736,7.30886895 36.9749703,6.90520978 C36.1997495,6.60047801 35.0348662,6.23797971 32.8898879,6.13905229 C30.8278335,6.04389354 30.0489179,6.0153843 25.7756486,6.01022372 L25.1078533,6.00961933 C24.9919871,6.00954598 24.8737876,6.00948587 24.7531802,6.00943833 Z M24.0000437,12.8251322 C30.2393612,12.8251322 35.2972902,17.940916 35.2972902,24.25169 C35.2972902,30.5623757 30.2393612,35.6781595 24.0000437,35.6781595 C17.7606388,35.6781595 12.7027098,30.5623757 12.7027098,24.25169 C12.7027098,17.940916 17.7606388,12.8251322 24.0000437,12.8251322 Z M24.0000437,16.8344306 C19.9498929,16.8344306 16.6666667,20.1552118 16.6666667,24.25169 C16.6666667,28.3480798 19.9498929,31.6688611 24.0000437,31.6688611 C28.0501071,31.6688611 31.3333333,28.3480798 31.3333333,24.25169 C31.3333333,20.1552118 28.0501071,16.8344306 24.0000437,16.8344306 Z M35.7436294,9.70344231 C37.2016767,9.70344231 38.3836766,10.8989624 38.3836766,12.3736875 C38.3836766,13.8484126 37.2016767,15.0438444 35.7436294,15.0438444 C34.2856695,15.0438444 33.1036696,13.8484126 33.1036696,12.3736875 C33.1036696,10.8989624 34.2856695,9.70344231 35.7436294,9.70344231 Z" id="Colour"></path>
            </g>
        </g>
    </g>
</svg>