<?xml version="1.0" encoding="UTF-8"?>
<svg width="44px" height="44px" viewBox="0 0 44 44" version="1.1" xmlns="http://www.w3.org/2000/svg" xmlns:xlink="http://www.w3.org/1999/xlink">
    <title>3. Icons / Social Media / LinkedIn</title>
    <g id="Symbols" stroke="none" stroke-width="1" fill="none" fill-rule="evenodd">
        <g id="13.-Sections/A.-CW/8.-Contacts/Social-Media" transform="translate(-1039.000000, -74.000000)" fill="#FFFFFF">
            <g id="3.-Icons-/-Social-Media-/-LinkedIn" transform="translate(1037.000000, 72.000000)">
                <path d="M36.8333333,2 C41.897,2 46,6.10483333 46,11.1666667 L46,11.1666667 L46,36.8333333 C46,41.8951667 41.897,46 36.8333333,46 L36.8333333,46 L11.1666667,46 C6.10483333,46 2,41.8951667 2,36.8333333 L2,36.8333333 L2,11.1666667 C2,6.10483333 6.10483333,2 11.1666667,2 L11.1666667,2 Z M15.9672131,16.5013928 L10.4590164,16.5013928 L10.4590164,36 L15.9672131,36 L15.9672131,16.5013928 Z M25.147541,16.5013928 L19.6393443,16.5013928 L19.6393443,36 L25.147541,36 L25.147541,26.0663459 C25.147541,20.5482401 32.4918033,20.0962269 32.4918033,26.0663459 L32.4918033,26.0663459 L32.4918033,36 L38,36 L38,24.0189921 C38,14.7075209 27.7106885,15.0460876 25.147541,19.6300329 L25.147541,19.6300329 L25.147541,16.5013928 Z M13.2131148,8 C11.4394754,8 10,9.40035452 10,11.1268676 C10,12.8533806 11.4394754,14.2537351 13.2131148,14.2537351 C14.9885902,14.2537351 16.4262295,12.8533806 16.4262295,11.1268676 C16.4262295,9.40035452 14.9867541,8 13.2131148,8 Z" id="Colour"></path>
            </g>
        </g>
    </g>
</svg>