<svg width="150" height="33" viewBox="0 0 150 33" fill="none" xmlns="http://www.w3.org/2000/svg">
<path fill-rule="evenodd" clip-rule="evenodd" d="M49.7791 3.73564C49.8043 2.76253 49.2757 1.85287 48.3983 1.35924C47.5209 0.865606 46.4326 0.865606 45.5551 1.35924C44.6777 1.85287 44.1492 2.76253 44.1743 3.73564V10.5766C42.7034 8.75487 40.416 7.70811 38.0096 7.7554C33.3261 7.7554 29.0107 11.2119 29.0107 17.524V17.5928C29.0107 23.9048 33.3997 27.3614 38.0096 27.3614C40.4763 27.4067 42.7983 26.251 44.1743 24.2929V24.5402C44.1492 25.5133 44.6777 26.4229 45.5551 26.9166C46.4326 27.4102 47.5209 27.4102 48.3983 26.9166C49.2757 26.4229 49.8043 25.5133 49.7791 24.5402V3.73564ZM39.4534 12.304C40.8253 12.3562 42.1148 12.944 43.021 13.9302C43.9272 14.9164 44.3708 16.2148 44.2483 17.5224V17.5928C44.4847 19.3759 43.6226 21.1291 42.0356 22.0924C40.4486 23.0557 38.4224 23.0557 36.8354 22.0924C35.2484 21.1291 34.3862 19.3759 34.6227 17.5928V17.5224C34.5015 16.2094 34.9504 14.9065 35.8641 13.9196C36.7777 12.9326 38.0757 12.3484 39.4534 12.304Z" fill="#003D4C"/>
<path fill-rule="evenodd" clip-rule="evenodd" d="M58.5771 32.9655C61.8014 32.9655 63.3955 31.5277 64.9929 27.7059L71.6194 11.9597C71.7695 11.5548 71.8533 11.1288 71.8678 10.6977C71.8618 10.0361 71.5887 9.40436 71.1095 8.94314C70.6302 8.48191 69.9846 8.22952 69.3162 8.24215C68.0906 8.26822 67.0329 9.10005 66.7302 10.276L62.7622 21.186L58.6494 10.245C58.3735 9.0571 57.2946 8.22288 56.0633 8.24541C55.3625 8.21669 54.6807 8.47479 54.1781 8.95904C53.6755 9.4433 53.3964 10.111 53.4065 10.8052C53.4329 11.2269 53.5285 11.6416 53.6895 12.033L60.1728 26.9031L59.9968 27.3232C59.7097 28.1 58.9097 28.5691 58.0835 28.4452C57.6966 28.4372 57.3137 28.3663 56.9501 28.2351C56.6652 28.1368 56.365 28.0894 56.0633 28.0951C55.4892 28.101 54.9413 28.3342 54.542 28.7427C54.1426 29.1511 53.9251 29.7007 53.9379 30.2689C53.9432 31.2987 54.6373 32.2003 55.6389 32.4786C56.5794 32.8194 57.5757 32.9845 58.5771 32.9655V32.9655Z" fill="#003D4C"/>
<path fill-rule="evenodd" clip-rule="evenodd" d="M82.5404 28.0219C86.5774 28.0219 89.6697 25.9974 89.6697 21.5358V21.4661C89.6697 17.7914 86.6436 16.4423 84.0357 15.5057C82.0188 14.7554 80.2458 14.2315 80.2458 13.1069V13.0321C80.2458 12.2452 80.9063 11.6394 82.1932 11.6394C83.6078 11.7488 84.9843 12.1833 86.2302 12.9137C86.5261 13.0916 86.8603 13.1822 87.1991 13.1766C87.7591 13.1887 88.2999 12.957 88.6993 12.5336C89.0987 12.1103 89.3228 11.5312 89.3209 10.9275C89.3313 10.0107 88.8404 9.17322 88.0679 8.78979C86.2782 7.80742 84.3031 7.28152 82.295 7.25269C78.539 7.25269 75.4789 9.54007 75.4789 13.6257V13.7005C75.4789 17.5999 78.4356 18.9124 81.0435 19.7358C83.0959 20.4112 84.9045 20.8238 84.9045 22.0597V22.1346C84.9045 23.0346 84.2085 23.6334 82.6777 23.6334C80.8752 23.5442 79.1304 22.9214 77.6347 21.8334C77.3185 21.6337 76.958 21.5302 76.5915 21.534C76.0352 21.5231 75.4986 21.7565 75.1051 22.1807C74.7116 22.6049 74.495 23.1833 74.5052 23.7831C74.5001 24.5791 74.8834 25.3195 75.5145 25.7328C77.6037 27.208 80.043 28.0028 82.5404 28.0219Z" fill="#003D4C"/>
<path fill-rule="evenodd" clip-rule="evenodd" d="M100.673 28.0219C104.71 28.0219 107.802 25.9974 107.802 21.5358V21.4661C107.802 17.7914 104.776 16.4423 102.168 15.5057C100.151 14.7554 98.377 14.2315 98.377 13.1069V13.0321C98.377 12.2452 99.039 11.6394 100.324 11.6394C101.739 11.7488 103.115 12.1833 104.361 12.9137C104.657 13.0916 104.991 13.1822 105.33 13.1766C105.889 13.1888 106.43 12.9569 106.829 12.5335C107.228 12.1102 107.452 11.5311 107.45 10.9275C107.461 10.011 106.97 9.17338 106.198 8.78979C104.409 7.80742 102.434 7.28152 100.426 7.25269C96.6704 7.25269 93.6107 9.54007 93.6107 13.6257V13.7005C93.6107 17.5999 96.5654 18.9124 99.1746 19.7358C101.225 20.4112 103.034 20.8238 103.034 22.0597V22.1346C103.034 23.0346 102.338 23.6334 100.809 23.6334C99.0063 23.5445 97.2616 22.9217 95.7662 21.8334C95.45 21.6337 95.0896 21.5302 94.7231 21.534C94.1668 21.5231 93.6303 21.7565 93.2368 22.1807C92.8434 22.6049 92.6269 23.1833 92.6371 23.7831C92.6332 24.5783 93.0154 25.3178 93.6446 25.7328C95.7345 27.2086 98.1748 28.0034 100.673 28.0219Z" fill="#003D4C"/>
<path fill-rule="evenodd" clip-rule="evenodd" d="M116.369 16.032C116.469 13.7054 118.256 11.8553 120.463 11.7917C122.663 11.8309 124.432 13.7122 124.45 16.032H116.369ZM127.55 25.592C128.003 25.1675 128.261 24.5575 128.256 23.9184C128.274 23.3272 128.062 22.7541 127.669 22.3325C127.275 21.9109 126.735 21.6775 126.175 21.6868C125.702 21.6671 125.237 21.825 124.864 22.1324C123.771 23.0131 122.431 23.4841 121.055 23.471C118.788 23.6282 116.783 21.9333 116.435 19.5658H127.051C127.733 19.5841 128.391 19.3015 128.867 18.786C129.343 18.2705 129.593 17.569 129.557 16.8506C129.601 14.2912 128.657 11.8227 126.94 10.0127C125.223 8.20273 122.882 7.20696 120.455 7.2543C117.894 7.27029 115.45 8.38621 113.686 10.3446C111.922 12.3031 110.992 14.9349 111.108 17.6331V17.7073C111.018 20.4878 112.033 23.1817 113.908 25.1384C115.784 27.0952 118.349 28.1368 120.984 28.0118C123.38 28.0789 125.716 27.2174 127.55 25.5903V25.592Z" fill="#003D4C"/>
<path fill-rule="evenodd" clip-rule="evenodd" d="M136.712 32.9655C139.934 32.9655 141.53 31.5276 143.127 27.7059L149.751 11.9597C149.902 11.555 149.986 11.1289 150 10.6977C149.994 10.0361 149.721 9.40436 149.241 8.94313C148.762 8.48191 148.117 8.22952 147.448 8.24215C146.223 8.26822 145.165 9.10005 144.862 10.276L140.895 21.1859L136.782 10.245C136.506 9.05685 135.426 8.22273 134.195 8.24541C133.494 8.21669 132.812 8.47479 132.31 8.95904C131.807 9.44329 131.528 10.111 131.538 10.8052C131.565 11.2269 131.66 11.6416 131.821 12.033L138.306 26.9031L138.128 27.3232C137.841 28.1004 137.041 28.5697 136.215 28.4451C135.828 28.4372 135.445 28.3662 135.082 28.2351C134.797 28.1366 134.497 28.0892 134.195 28.095C133.621 28.101 133.073 28.3342 132.674 28.7426C132.274 29.151 132.057 29.7007 132.07 30.2689C132.075 31.2987 132.769 32.2003 133.771 32.4786C134.712 32.8197 135.709 32.9848 136.712 32.9655Z" fill="#003D4C"/>
<path fill-rule="evenodd" clip-rule="evenodd" d="M13.1515 28.0145C16.6224 28.1184 19.9873 26.8101 22.4786 24.3882C24.9699 21.9663 26.375 18.6373 26.3735 15.1606V15.0898C26.1432 7.95007 20.285 2.28746 13.1501 2.30792C6.01528 2.32848 0.189613 8.02466 0.000125553 15.1656V15.2364C-0.0152285 18.6982 1.37825 22.0169 3.85955 24.4278C6.34084 26.8387 9.69589 28.1338 13.1515 28.0145ZM13.2219 22.9751C11.1807 22.9701 9.22875 22.1365 7.81231 20.665C6.39587 19.1934 5.63601 17.2097 5.70643 15.1672V15.0964C5.62282 13.0691 6.37086 11.0958 7.77687 9.63454C9.18289 8.17331 11.1246 7.35128 13.1511 7.35925C15.1923 7.36433 17.1443 8.1979 18.5607 9.66946C19.9771 11.141 20.737 13.1248 20.6666 15.1672V15.2381C20.7497 17.2651 20.0015 19.238 18.5955 20.6988C17.1896 22.1597 15.2481 22.9815 13.2219 22.9735V22.9751Z" fill="#003D4C"/>
<path fill-rule="evenodd" clip-rule="evenodd" d="M7.19238 20.2394C8.93033 22.5229 11.9811 23.6286 14.9419 23.0481C17.9027 22.4676 20.2005 20.3133 20.7787 17.5757C16.1653 18.0466 11.6142 18.9389 7.19238 20.2394V20.2394Z" fill="#00A792"/>
<path fill-rule="evenodd" clip-rule="evenodd" d="M26.3737 16.7722C25.6106 22.1535 21.4428 26.5128 15.9217 27.7046C10.4005 28.8963 4.68916 26.6693 1.59863 22.1198C3.32645 21.3145 5.10902 20.6222 6.93414 20.0477C8.66708 22.4194 11.7091 23.5678 14.6613 22.9649C17.6136 22.362 19.9048 20.1244 20.4813 17.2811C22.4388 17.0554 24.4113 16.889 26.3737 16.7722Z" fill="#00D1B6"/>
</svg>
