<svg width="39" height="32" viewBox="0 0 39 32" fill="none" xmlns="http://www.w3.org/2000/svg">
<path fill-rule="evenodd" clip-rule="evenodd" d="M35.0081 7.96584C35.0315 8.3124 35.0315 8.66056 35.0315 9.01016C35.0315 19.6876 26.9817 32 12.2647 32V31.9938C7.91687 31.9995 3.65921 30.7418 0 28.3704C0.63205 28.4469 1.26806 28.4859 1.90471 28.487C5.50846 28.4907 9.00858 27.2701 11.842 25.0216C8.41868 24.9566 5.41466 22.7017 4.36636 19.4102C5.56534 19.6435 6.8014 19.5961 7.97946 19.2716C4.24594 18.51 1.56103 15.1972 1.55992 11.3511C1.55992 11.3166 1.55992 11.2818 1.55992 11.2487C2.67271 11.8751 3.91827 12.222 5.19156 12.2601C1.67527 9.88904 0.590537 5.16599 2.71438 1.47398C6.77731 6.52183 12.7716 9.59032 19.2052 9.91609C18.5602 7.11016 19.4419 4.16951 21.52 2.19606C24.7422 -0.863952 29.8108 -0.706831 32.8411 2.54694C34.633 2.19014 36.3514 1.52678 37.9221 0.585653C37.3249 2.4567 36.0747 4.04502 34.4044 5.05463C35.9906 4.86551 37.5397 4.43687 39 3.78358C37.9257 5.40583 36.574 6.82199 35.0081 7.96584Z" fill="#003d4c"/>
</svg>
