<?xml version="1.0" encoding="UTF-8"?>
<svg width="44px" height="37px" viewBox="0 0 44 37" version="1.1" xmlns="http://www.w3.org/2000/svg" xmlns:xlink="http://www.w3.org/1999/xlink">
    <title>3. Icons / Social Media / Twitter</title>
    <g id="Symbols" stroke="none" stroke-width="1" fill="none" fill-rule="evenodd">
        <g id="13.-Sections/A.-CW/8.-Contacts/Social-Media" transform="translate(-1135.000000, -79.000000)" fill="#FFFFFF">
            <g id="3.-Icons-/-Social-Media-/-Twitter" transform="translate(1133.000000, 73.000000)">
                <path d="M41.4962643,15.1077504 C41.5227211,15.5039915 41.5227211,15.902062 41.5227211,16.3017789 C41.5227211,28.5098842 32.4408845,42.5872378 15.8370907,42.5872378 L15.8370907,42.5801033 C10.931855,42.586689 6.12833503,41.1486227 2,38.4373162 C2.71308255,38.52476 3.43063416,38.5693966 4.14890082,38.5706772 C8.21466907,38.5748847 12.1635268,37.1792598 15.3601531,34.6084487 C11.497995,34.5341764 8.10884182,31.9560479 6.92615088,28.1926718 C8.27884471,28.4593936 9.6733689,28.4052444 11.0024661,28.0342485 C6.79029159,27.1634693 3.76116553,23.3757626 3.75991419,18.9783274 C3.75991419,18.9388131 3.75991419,18.8991158 3.75991419,18.8612479 C5.01536136,19.5774455 6.42061129,19.9740525 7.8571446,20.0175915 C3.8900531,17.3066508 2.66624685,11.9065391 5.06237583,7.68527211 C9.64619704,13.4567456 16.4089511,16.9651078 23.6674129,17.3375672 C22.9396718,14.1294043 23.9344836,10.7672086 26.2789503,8.51086594 C29.9142591,5.01219939 35.6326842,5.19184334 39.051512,8.91204637 C41.0731341,8.50409728 43.0118105,7.74564125 44.7838805,6.66960692 C44.1101257,8.80887001 42.6996916,10.6248838 40.8151802,11.779215 C42.6047689,11.5629837 44.3525273,11.072896 46,10.325965 C44.7879921,12.1807613 43.2629714,13.7999351 41.4962643,15.1077504" id="Colour"></path>
            </g>
        </g>
    </g>
</svg>